<svg width="41" height="40" viewBox="0 0 41 40" fill="none" xmlns="http://www.w3.org/2000/svg">
<ellipse cx="20.093" cy="20" rx="19.9861" ry="20" fill="white"/>
<ellipse cx="20.093" cy="20" rx="19.9861" ry="20" fill="#F26944"/>
<path d="M25.1964 19.9114L25.1965 19.9115C25.3525 20.0674 25.4406 20.279 25.4406 20.5C25.4406 20.7206 25.3529 20.9326 25.1964 21.0886L25.1964 19.9114ZM25.1964 19.9114L18.2632 12.9927L18.2632 12.9926C17.9383 12.6686 17.4122 12.6692 17.088 12.9942L17.0879 12.9943C16.7638 13.3194 16.7647 13.8459 17.0895 14.17L17.0895 14.17L23.4326 20.5L17.0893 26.83L17.0893 26.83C16.7645 27.1542 16.7636 27.6804 17.0876 28.0055L17.0877 28.0056C17.2501 28.1684 17.4635 28.25 17.6763 28.25C17.8884 28.25 18.101 28.1689 18.2632 28.0072L18.2632 28.0072L25.1962 21.0888L25.1964 19.9114Z" fill="white" stroke="white" stroke-width="0.5"/>
</svg>
