<svg width="21" height="23" viewBox="0 0 21 23" fill="none" xmlns="http://www.w3.org/2000/svg">
<path d="M4.41787 13.075C4.07334 12.9086 3.68878 12.8125 3.28125 12.8125C1.83389 12.8125 0.65625 13.9901 0.65625 15.4375C0.65625 16.8849 1.83389 18.0625 3.28125 18.0625C4.1895 18.0625 4.99111 17.5985 5.46263 16.8954L7.94227 18.1367C7.89961 18.324 7.875 18.5186 7.875 18.7188C7.875 20.1661 9.05264 21.3438 10.5 21.3438C11.9474 21.3438 13.125 20.1661 13.125 18.7188C13.125 18.1747 12.9586 17.6691 12.6738 17.2494L16.1582 13.6062C16.5953 13.9304 17.134 14.125 17.7188 14.125C19.1661 14.125 20.3438 12.9474 20.3438 11.5C20.3438 10.0526 19.1661 8.875 17.7188 8.875C17.113 8.875 16.5565 9.08303 16.1116 9.42887L12.5711 5.88841C12.917 5.44347 13.125 4.88697 13.125 4.28125C13.125 2.83389 11.9474 1.65625 10.5 1.65625C9.05264 1.65625 7.875 2.83389 7.875 4.28125C7.875 4.48075 7.89928 4.67467 7.94194 4.8617L5.61487 5.70958C5.17847 4.86269 4.29745 4.28125 3.28125 4.28125C1.83389 4.28125 0.65625 5.45889 0.65625 6.90625C0.65625 8.35361 1.83389 9.53125 3.28125 9.53125C3.65466 9.53125 4.00936 9.45184 4.33125 9.31042L5.53908 11.3432L4.41787 13.075ZM3.28125 17.4062C2.19548 17.4062 1.3125 16.5233 1.3125 15.4375C1.3125 14.3517 2.19548 13.4688 3.28125 13.4688C4.36702 13.4688 5.25 14.3517 5.25 15.4375C5.25 16.5233 4.36702 17.4062 3.28125 17.4062ZM5.75498 16.3074C5.85112 16.0347 5.90625 15.7427 5.90625 15.4375C5.90625 14.6326 5.54138 13.912 4.96945 13.4304L5.91314 11.9728L8.75831 16.7605C8.51878 16.9738 8.3183 17.2291 8.16966 17.5162L5.75498 16.3074ZM10.5 6.90625C11.1057 6.90625 11.6622 6.69822 12.1072 6.35238L15.648 9.89317C15.4357 10.1662 15.2768 10.4815 15.1853 10.8247L13.124 10.5412C13.1237 10.5327 13.125 10.5242 13.125 10.5156C13.125 9.06827 11.9474 7.89062 10.5 7.89062C9.59175 7.89062 8.78981 8.35459 8.31862 9.05777L7.92717 8.8622L9.3637 6.64375C9.70791 6.81011 10.0925 6.90625 10.5 6.90625ZM10.8281 16.1164V13.1177C11.8945 12.9838 12.7621 12.2087 13.0338 11.1909L15.0951 11.4744C15.0951 11.4829 15.0938 11.4915 15.0938 11.5C15.0938 12.1267 15.3149 12.7019 15.6827 13.1538L12.2374 16.7562C11.8512 16.414 11.3653 16.184 10.8281 16.1164ZM10.5 8.54688C11.5858 8.54688 12.4688 9.42986 12.4688 10.5156C12.4688 11.6014 11.5858 12.4844 10.5 12.4844C9.41423 12.4844 8.53125 11.6014 8.53125 10.5156C8.53125 9.42986 9.41423 8.54688 10.5 8.54688ZM8.02627 9.64577C7.93013 9.91844 7.875 10.2105 7.875 10.5156C7.875 11.8518 8.87906 12.9556 10.1719 13.118V16.1167C9.86081 16.1558 9.56714 16.249 9.29972 16.3871L6.31116 11.3579L7.5682 9.41673L8.02627 9.64577ZM10.5 20.6875C9.41423 20.6875 8.53125 19.8045 8.53125 18.7188C8.53125 17.633 9.41423 16.75 10.5 16.75C11.5858 16.75 12.4688 17.633 12.4688 18.7188C12.4688 19.8045 11.5858 20.6875 10.5 20.6875ZM17.7188 9.53125C18.8045 9.53125 19.6875 10.4142 19.6875 11.5C19.6875 12.5858 18.8045 13.4688 17.7188 13.4688C16.633 13.4688 15.75 12.5858 15.75 11.5C15.75 10.4142 16.633 9.53125 17.7188 9.53125ZM10.5 2.3125C11.5858 2.3125 12.4688 3.19548 12.4688 4.28125C12.4688 5.36702 11.5858 6.25 10.5 6.25C9.41423 6.25 8.53125 5.36702 8.53125 4.28125C8.53125 3.19548 9.41423 2.3125 10.5 2.3125ZM8.16638 5.47792C8.32683 5.78931 8.54634 6.06461 8.8118 6.28839L7.33655 8.56689L5.75498 7.77611C5.85112 7.50344 5.90625 7.21141 5.90625 6.90625C5.90625 6.70675 5.88197 6.51283 5.83931 6.3258L8.16638 5.47792ZM1.3125 6.90625C1.3125 5.82048 2.19548 4.9375 3.28125 4.9375C4.36702 4.9375 5.25 5.82048 5.25 6.90625C5.25 7.99202 4.36702 8.875 3.28125 8.875C2.19548 8.875 1.3125 7.99202 1.3125 6.90625ZM4.89398 8.97311C5.11383 8.80117 5.30677 8.59642 5.46263 8.36411L6.97758 9.12142L5.93709 10.7283L4.89398 8.97311Z" fill="white"/>
</svg>
