<svg width="20" height="10" viewBox="0 0 20 10" fill="none" xmlns="http://www.w3.org/2000/svg">
<path d="M0.229141 4.44699C0.229376 4.44675 0.22957 4.44648 0.229843 4.44625L4.31203 0.383747C4.61785 0.0794116 5.1125 0.0805441 5.41691 0.386403C5.72129 0.692223 5.72012 1.18687 5.4143 1.49125L2.67352 4.21875H19.2188C19.6502 4.21875 20 4.56851 20 4.99999C20 5.43148 19.6502 5.78124 19.2188 5.78124H2.67355L5.41426 8.50874C5.72008 8.81312 5.72125 9.30777 5.41687 9.61359C5.11246 9.91948 4.61777 9.92054 4.31199 9.61624L0.229805 5.55374C0.22957 5.55351 0.229374 5.55324 0.229101 5.553C-0.0768757 5.24761 -0.0758991 4.75136 0.229141 4.44699Z" fill="#F66038"/>
</svg>
