<svg width="60" height="60" viewBox="0 0 60 60" fill="none" xmlns="http://www.w3.org/2000/svg">
<circle cx="30" cy="30" r="30" fill="url(#paint0_linear)"/>
<g clip-path="url(#clip0)">
<path d="M43.1565 21.9538L44.6523 20.4583C44.9008 20.2096 44.9827 19.8392 44.862 19.5091C44.7412 19.1787 44.4398 18.9486 44.0892 18.9189L41.3144 18.6848L41.0802 15.9099C41.0508 15.5596 40.8205 15.2582 40.4903 15.1374C40.1602 15.0165 39.7899 15.0984 39.5411 15.3471L38.0453 16.8427C35.6265 15.3596 32.8608 14.5786 30 14.5786C25.8811 14.5786 22.0085 16.1826 19.096 19.0952C16.1835 22.0077 14.5794 25.8803 14.5794 29.9992C14.5794 34.1181 16.1835 37.9906 19.096 40.9032C22.0085 43.8157 25.8811 45.4197 30 45.4197C34.1189 45.4197 37.9915 43.8157 40.904 40.9032C43.8165 37.9906 45.4206 34.1181 45.4206 29.9992C45.4206 27.1384 44.6396 24.3729 43.1565 21.9538ZM39.5776 19.5971C39.6148 20.0361 39.963 20.3844 40.4021 20.4216L41.9986 20.5562L39.8376 22.7171L37.4809 22.5183L37.282 20.1616L39.443 18.0006L39.5776 19.5971ZM33.0721 29.9992C33.0721 31.6931 31.6939 33.0712 30 33.0712C28.3061 33.0712 26.9279 31.6931 26.9279 29.9992C26.9279 28.3053 28.3061 26.9271 30 26.9271C30.5188 26.9271 31.0075 27.0568 31.4365 27.2848L29.3612 29.3603C29.0082 29.713 29.0082 30.2851 29.3612 30.638C29.5374 30.8145 29.7687 30.9027 30 30.9027C30.2313 30.9027 30.4626 30.8145 30.6388 30.638L32.7144 28.5627C32.9424 28.9916 33.0721 29.4803 33.0721 29.9992ZM32.7499 25.9713C31.9664 25.4348 31.0193 25.12 30 25.12C27.3096 25.12 25.1208 27.3088 25.1208 29.9992C25.1208 32.6896 27.3096 34.8783 30 34.8783C32.6904 34.8783 34.8792 32.6896 34.8792 29.9992C34.8792 28.9799 34.5643 28.0328 34.0278 27.2492L36.6077 24.6694C37.7863 26.1278 38.4934 27.9824 38.4934 29.9992C38.4934 34.6823 34.6832 38.4925 30 38.4925C25.3168 38.4925 21.5066 34.6823 21.5066 29.9992C21.5066 25.316 25.3168 21.5058 30 21.5058C32.0167 21.5058 33.8714 22.2129 35.3298 23.3915L32.7499 25.9713ZM39.6261 39.6253C37.055 42.1966 33.6363 43.6126 30 43.6126C26.3637 43.6126 22.945 42.1966 20.3739 39.6253C17.8026 37.0541 16.3865 33.6355 16.3865 29.9992C16.3865 26.3629 17.8026 22.9442 20.3739 20.3731C22.945 17.8017 26.3637 16.3857 30 16.3857C32.3789 16.3857 34.6832 16.9968 36.7267 18.1613L35.7076 19.1804C35.5429 19.3451 35.4491 19.5658 35.4432 19.7961C35.4425 19.8291 35.4434 19.862 35.446 19.8952L35.5676 21.3369C33.9613 20.3006 32.0497 19.6987 30 19.6987C24.3203 19.6987 19.6995 24.3195 19.6995 29.9992C19.6995 35.6788 24.3203 40.2996 30 40.2996C35.6796 40.2996 40.3004 35.6788 40.3004 29.9992C40.3004 27.9495 39.6986 26.0379 38.6623 24.4315L40.104 24.5532C40.1294 24.5551 40.1548 24.5562 40.18 24.5562C40.1842 24.5562 40.1887 24.5558 40.1929 24.5555C40.2049 24.5555 40.2167 24.5546 40.2287 24.5539C40.2482 24.5527 40.268 24.5515 40.2873 24.5492C40.2993 24.5475 40.3113 24.5456 40.3233 24.5438C40.3423 24.5407 40.3612 24.5372 40.38 24.5329C40.392 24.5301 40.4037 24.5271 40.4155 24.524C40.4339 24.5191 40.452 24.5134 40.4701 24.5073C40.4819 24.5033 40.4934 24.4993 40.5049 24.4948C40.5226 24.488 40.54 24.4805 40.5574 24.4722C40.5685 24.4673 40.5795 24.4624 40.5906 24.4567C40.608 24.4478 40.6249 24.4379 40.6416 24.428C40.6518 24.4219 40.6619 24.4162 40.6718 24.4101C40.6896 24.3983 40.7068 24.3856 40.724 24.3727C40.732 24.3666 40.7402 24.3612 40.748 24.3548C40.7725 24.3351 40.7962 24.3141 40.8188 24.2915L41.8379 23.2724C43.0024 25.316 43.6135 27.6203 43.6135 29.9992C43.6135 33.6355 42.1974 37.0541 39.6261 39.6253Z" fill="white"/>
</g>
<defs>
<linearGradient id="paint0_linear" x1="60" y1="-5.47786e-06" x2="-9.71373" y2="44.9272" gradientUnits="userSpaceOnUse">
<stop stop-color="#929CFF"/>
<stop offset="0.593" stop-color="#737FF1"/>
<stop offset="1" stop-color="#6F79DF"/>
</linearGradient>
<clipPath id="clip0">
<rect width="30.8411" height="30.8411" fill="white" transform="translate(14.5794 14.5786)"/>
</clipPath>
</defs>
</svg>
