<svg width="28" height="40" viewBox="0 0 28 40" fill="none" xmlns="http://www.w3.org/2000/svg">
<path d="M27.2742 35.9264V39.3104C27.2742 39.6914 26.9656 40 26.5847 40H1.41528C1.03429 40 0.725708 39.6914 0.725708 39.3104V35.9264C0.725708 32.3759 3.60381 29.4996 7.1551 29.4987C8.41012 29.4978 9.51516 28.8522 10.1513 27.873C10.7904 26.8909 10.7245 26.0369 10.7245 25.3466L10.7374 25.3147C7.64297 24.0338 5.46651 20.9851 5.46651 17.4277V17.1579C4.23778 17.1579 3.3116 16.1869 3.3116 15.0427V11.4603C3.28402 10.2131 3.34091 5.81448 6.51811 2.75192C10.2125 -0.808861 16.067 -0.517516 20.3078 1.38743C20.4457 1.44949 20.4414 1.64688 20.3018 1.70463L19.1959 2.15975C19.0304 2.22784 19.0657 2.47178 19.2433 2.49074L19.7803 2.54849C22.3515 2.82346 24.74 4.21984 26.2209 6.5437C26.2606 6.60662 26.2493 6.7023 26.1985 6.75661C25.2848 7.72287 24.7745 9.00547 24.7745 10.3389V15.0427C24.7745 16.2106 23.8272 17.1579 22.6593 17.1579H22.5334V17.4277C22.5334 20.9851 20.357 24.0338 17.2625 25.3147L17.2754 25.3466C17.2754 26.017 17.2041 26.8826 17.8486 27.873C18.4848 28.8522 19.5898 29.4978 20.8448 29.4987C24.3961 29.4996 27.2742 32.3759 27.2742 35.9264Z" fill="#FFDFBA"/>
<path d="M27.2742 35.9264V39.3105C27.2742 39.6913 26.9655 40 26.5847 40H1.41528C1.03446 40 0.725708 39.6913 0.725708 39.3105V35.9264C0.725708 32.376 3.60424 29.5 7.15467 29.4987C8.41004 29.4983 9.51534 28.8519 10.1513 27.873C12.3712 29.7695 15.6274 29.7707 17.8486 27.873C18.4845 28.8519 19.5899 29.4983 20.8453 29.4987C24.3957 29.5 27.2742 32.376 27.2742 35.9264Z" fill="#F26944"/>
<path d="M26.2206 6.54408C26.2606 6.60692 26.2494 6.70208 26.1982 6.75621C25.2848 7.72316 24.7745 9.00534 24.7745 10.3389V15.0426C24.7745 16.1104 23.9701 17.1579 22.5334 17.1579V11.8335C22.5334 9.54846 20.6811 7.6961 18.396 7.6961H9.60396C7.31889 7.6961 5.46653 9.54846 5.46653 11.8335V17.1579C4.2378 17.1579 3.31162 16.1869 3.31162 15.0426V11.4603C3.28403 10.213 3.34092 5.81443 6.51813 2.75187C10.2122 -0.808996 16.0673 -0.51748 20.3075 1.38764C20.4454 1.44961 20.4418 1.64709 20.3019 1.70467L19.1959 2.15996C19.0306 2.22805 19.0654 2.47173 19.2431 2.49078L19.7803 2.54844C22.352 2.82315 24.7399 4.21953 26.2206 6.54408Z" fill="#42434D"/>
<path d="M22.5334 17.4274C22.5334 22.142 18.7108 25.9608 14 25.9608C9.56157 25.9608 5.46655 22.5103 5.46655 17.1576V11.8332C5.46655 9.54816 7.31891 7.6958 9.60398 7.6958H18.396C20.6811 7.6958 22.5334 9.54816 22.5334 11.8332V17.4274Z" fill="#FFEBD2"/>
<path d="M20.9819 38.5344H18.9132C18.5324 38.5344 18.2236 38.2257 18.2236 37.8448C18.2236 37.464 18.5324 37.1553 18.9132 37.1553H20.9819C21.3627 37.1553 21.6715 37.464 21.6715 37.8448C21.6715 38.2257 21.3628 38.5344 20.9819 38.5344Z" fill="white"/>
<path d="M12.0678 22.9381C13.4708 23.8159 12.3645 25.9685 10.8287 25.352C7.67094 24.0845 5.46655 21.0073 5.46655 17.4278V11.8336C5.46655 10.9644 5.73462 10.1578 6.1925 9.49184C6.75398 8.6753 8.05245 9.03604 8.05245 10.1097V15.7038C8.05245 18.8509 9.70673 21.4609 12.0678 22.9381Z" fill="#FFF3E4"/>
<path d="M17.3729 26.7617C15.2493 27.6507 12.9155 27.7196 10.6271 26.7617C10.744 26.2768 10.7245 25.9627 10.7245 25.3463L10.7375 25.3145C12.8133 26.1761 15.1827 26.1778 17.2625 25.3145L17.2755 25.3463C17.2755 25.9629 17.256 26.2769 17.3729 26.7617Z" fill="#FFD6A6"/>
<path d="M10.6281 31.581C10.3094 31.6812 9.96752 31.7365 9.60102 31.7397C6.04144 31.771 3.13921 34.5856 3.13921 38.1453V38.7933C3.13921 39.4598 2.59893 40 1.93246 40H1.41528C1.03446 40 0.725708 39.6913 0.725708 39.3105V35.9264C0.725708 32.3759 3.60424 29.5 7.15467 29.4987C8.41004 29.4983 9.51534 28.8519 10.1513 27.873C10.4076 28.092 10.6821 28.2888 10.9712 28.4611C12.2429 29.2188 12.0402 31.137 10.6281 31.581Z" fill="#F27D5D"/>
<path d="M17.3719 31.581C17.6906 31.6812 18.0325 31.7365 18.399 31.7397C21.9586 31.771 24.8608 34.5856 24.8608 38.1453V38.7933C24.8608 39.4598 25.4011 40 26.0675 40H26.5847C26.9655 40 27.2743 39.6913 27.2743 39.3105V35.9264C27.2743 32.3759 24.3958 29.5 20.8453 29.4987C19.59 29.4983 18.4847 28.8519 17.8487 27.873C17.5924 28.092 17.3179 28.2888 17.0288 28.4611C15.7572 29.2188 15.9598 31.137 17.3719 31.581Z" fill="#F27D5D"/>
<path d="M20.3018 1.70463C19.2883 2.12173 19.1438 2.21371 18.7927 2.15923C13.1318 1.28175 8.16516 3.62397 6.47847 9.1227V9.12356C5.84752 9.84934 5.46653 10.7975 5.46653 11.8336V15.0679C5.46653 16.4633 3.31162 16.5604 3.31162 15.0427V11.4603C3.28403 10.2131 3.34092 5.81448 6.51812 2.75192C10.2125 -0.808861 16.067 -0.517516 20.3078 1.38743C20.4457 1.44949 20.4414 1.64688 20.3018 1.70463Z" fill="#4D4E59"/>
</svg>
