<svg width="90" height="90" viewBox="0 0 90 90" fill="none" xmlns="http://www.w3.org/2000/svg">
<circle cx="45" cy="45" r="45" fill="url(#paint0_linear)"/>
<g opacity="0.8">
<path d="M70.6981 29.1475C70.6946 29.1475 70.6912 29.1475 70.6879 29.1475H67.2236V27.9621C67.2423 27.493 66.9388 27.0713 66.4879 26.9402C64.0828 26.31 61.6062 25.994 59.1199 26.0001C55.0323 26.0001 49.4629 26.9198 45.3447 31.1096C41.2571 26.8789 35.6468 26.0001 31.5694 26.0001C29.0831 25.994 26.6065 26.31 24.2015 26.9402C23.7506 27.0713 23.4471 27.493 23.4657 27.9621V29.1373H20.0219C19.4576 29.1373 19 29.5949 19 30.1592V62.7988C19 63.3632 19.4576 63.8207 20.0219 63.8207C20.1974 63.8202 20.3699 63.7745 20.5226 63.6879C20.6248 63.6368 30.8439 58.047 45.1096 61.6441H45.2629H45.3549C45.4364 61.6539 45.5187 61.6539 45.6001 61.6441C59.9068 58.0163 70.1258 63.5959 70.1871 63.6879C70.5033 63.8704 70.8929 63.8704 71.209 63.6879C71.5233 63.5065 71.7178 63.1719 71.72 62.809V30.1695C71.72 29.6051 71.2626 29.1475 70.6981 29.1475ZM21.0438 61.174V31.1914H23.4862V56.8207C23.4798 57.385 23.9321 57.8477 24.4964 57.8541C24.5516 57.8547 24.6068 57.8509 24.6613 57.8426C26.7754 57.5198 28.9098 57.349 31.0482 57.3316C34.0105 57.2803 36.9603 57.7258 39.7753 58.6499C33.4184 57.8812 26.9705 58.75 21.0438 61.174ZM31.0482 55.2981C29.1895 55.3023 27.333 55.4217 25.4891 55.6557V28.7694C27.4787 28.3262 29.5105 28.1 31.549 28.095C35.3709 28.095 40.6439 28.9738 44.3023 33.1023L44.333 58.5579C42.2074 57.1681 38.0585 55.2981 31.0482 55.2981ZM46.3768 33.1023C50.0352 29.0147 55.3082 28.095 59.1301 28.095C61.1685 28.101 63.2003 28.3271 65.19 28.7694V55.6557C63.3565 55.4195 61.5102 55.2967 59.6615 55.2878C52.6922 55.2878 48.533 57.1579 46.3768 58.5477V33.1023ZM69.666 61.174C63.7267 58.7434 57.2639 57.8744 50.8936 58.6499C53.7219 57.7225 56.6858 57.2768 59.6615 57.3316C61.8134 57.3437 63.9616 57.511 66.0893 57.8324C66.6473 57.9171 67.1683 57.5333 67.253 56.9754C67.2613 56.9208 67.2651 56.8657 67.2645 56.8105V31.1914H69.7069L69.666 61.174Z" fill="white"/>
</g>
<defs>
<linearGradient id="paint0_linear" x1="45" y1="-20.7" x2="45" y2="90" gradientUnits="userSpaceOnUse">
<stop stop-color="#FE8A6B"/>
<stop offset="0.5" stop-color="#FC7B58"/>
<stop offset="1" stop-color="#EC5D36"/>
</linearGradient>
</defs>
</svg>
