<svg width="121" height="120" viewBox="0 0 121 120" fill="none" xmlns="http://www.w3.org/2000/svg">
<g clip-path="url(#clip0)">
<path d="M26.065 110.239C39.3975 123.325 60.8199 123.254 74.0618 110.021L110.753 73.3553C123.995 60.1226 124.066 38.715 110.971 25.3917C110.953 25.3729 110.937 25.3524 110.919 25.3336L110.753 25.1684L108.342 22.7593C103.817 18.2371 96.4806 18.2371 91.9554 22.7593L87.7532 26.9586C83.2279 31.4807 83.2279 38.8122 87.7532 43.3343L90.3295 45.9089C90.455 46.0343 90.5864 46.1508 90.7225 46.2579C94.1771 48.975 95.8265 53.4317 94.5233 57.6277C93.5518 60.7557 91.8268 63.7002 89.3481 66.1772L66.8782 88.6315C64.3995 91.1085 61.453 92.8322 58.3229 93.8031C54.1242 95.1054 49.6644 93.4572 46.9451 90.0049C46.8379 89.8689 46.7216 89.7376 46.5959 89.6122L44.0195 87.0376C39.4943 82.5155 32.1576 82.5155 27.6324 87.0376L23.4302 91.2369C18.9049 95.759 18.9049 103.091 23.4302 107.613L25.841 110.022L26.0063 110.187C26.0256 110.205 26.0461 110.221 26.065 110.239Z" fill="url(#paint0_linear)"/>
<path d="M23.9764 0H59.467C72.3467 0 82.7878 10.4339 82.7878 23.3047V33.0214C82.7878 42.0784 77.6177 49.9285 70.0658 53.7857V67.3393C70.0658 70.8555 65.8116 72.6165 63.3233 70.1301L49.5097 56.3261H23.9764C11.0967 56.3261 0.655548 45.8922 0.655548 33.0214V23.3047C0.655548 10.4339 11.0967 0 23.9764 0V0Z" fill="url(#paint1_linear)"/>
<path d="M59.467 0H50.0439C62.9237 0 73.3648 10.4339 73.3648 23.3047V33.0214C73.3648 40.9464 69.4063 47.9471 63.3577 52.1574C61.6372 53.3551 60.6428 55.3447 60.6428 57.44V67.3393C60.6428 67.376 60.6395 67.4111 60.6388 67.4473L63.3235 70.1301C65.8116 72.6165 70.0658 70.8555 70.0658 67.3393V53.7857C77.6177 49.9285 82.7881 42.0784 82.7881 33.0214V23.3047C82.7878 10.4339 72.3467 0 59.467 0V0Z" fill="url(#paint2_linear)"/>
<path d="M110.971 25.3918C110.953 25.3727 110.937 25.3525 110.919 25.3337L110.753 25.1685L108.342 22.7591C104.853 19.272 99.692 18.4767 95.4373 20.3678C96.7001 20.929 97.8837 21.7243 98.9193 22.7591L101.33 25.1685L101.496 25.3337C101.514 25.3523 101.53 25.3727 101.548 25.3918C114.643 38.7151 114.572 60.1226 101.33 73.3551L64.6388 110.021C59.1809 115.476 52.3331 118.691 45.235 119.674C55.4576 121.094 66.201 117.877 74.0618 110.021L110.753 73.3553C123.995 60.1226 124.066 38.7151 110.971 25.3918Z" fill="url(#paint3_linear)"/>
<path d="M39.7839 92.5944C46.1693 98.7165 56.2833 98.6071 62.5404 92.3541L63.3266 91.5685L63.2004 91.5609C61.6581 92.5282 60.0179 93.2767 58.3229 93.8024C55.759 94.5974 53.0981 94.2925 50.7953 93.1482C50.7826 93.1419 50.767 93.1351 50.752 93.1285C50.7531 93.128 50.7543 93.1275 50.7555 93.1271C49.3032 92.3981 47.9943 91.3362 46.9453 90.0042C46.8382 89.8682 46.7219 89.7372 46.5961 89.6115L44.0198 87.0369C40.5303 83.5499 35.3695 82.7546 31.1148 84.6456C31.666 84.8908 35.565 88.5494 39.7839 92.5944Z" fill="url(#paint4_linear)"/>
<path d="M50.1591 28.6295C46.6442 31.3756 46.5801 33.2914 46.5801 36.6123C46.5801 37.8257 45.9411 39.2307 42.8097 39.2307C40.1896 39.2307 39.2948 38.2728 39.2948 34.9519C39.2948 29.4596 41.7233 26.8413 43.5766 25.2448C45.6856 23.4563 49.2643 21.4768 49.2643 18.0283C49.2643 15.0905 46.7082 13.686 43.5126 13.686C36.9942 13.686 38.4001 18.6032 34.949 18.6032C33.2236 18.6032 31.1146 17.4537 31.1146 14.9629C31.1146 11.5145 35.0768 6.40527 43.7042 6.40527C51.8843 6.40527 57.3165 10.9396 57.3165 16.9425C57.3168 22.9457 51.8845 27.2883 50.1591 28.6295ZM47.7944 48.5545C47.7944 51.173 45.6216 53.4721 42.8736 53.4721C40.1258 53.4721 38.0168 51.173 38.0168 48.5545C38.0168 45.8726 40.1898 43.6373 42.8736 43.6373C45.5575 43.6373 47.7944 45.8726 47.7944 48.5545Z" fill="url(#paint5_linear)"/>
<path d="M47.6651 26.1027C44.1502 28.8488 44.0862 30.7645 44.0862 34.0855C44.0862 35.2989 43.4471 36.7038 40.3158 36.7038C37.6956 36.7038 36.8009 35.746 36.8009 32.425C36.8009 26.9328 39.2294 24.3144 41.0827 22.718C43.1917 20.9295 46.7704 18.95 46.7704 15.5015C46.7704 12.5636 44.2143 11.1591 41.0186 11.1591C34.5002 11.1591 35.9061 16.0763 32.455 16.0763C30.7296 16.0763 28.6206 14.9269 28.6206 12.4361C28.6206 8.9876 32.5829 3.87842 41.2103 3.87842C49.3903 3.87842 54.8226 8.41277 54.8226 14.4156C54.8226 20.4191 49.3903 24.7617 47.6651 26.1027ZM45.3004 46.0278C45.3004 48.6464 43.1276 50.9455 40.3796 50.9455C37.6318 50.9455 35.5228 48.6464 35.5228 46.0278C35.5228 43.346 37.6958 41.1107 40.3796 41.1107C43.0636 41.1107 45.3004 43.3457 45.3004 46.0278Z" fill="url(#paint6_linear)"/>
</g>
<defs>
<linearGradient id="paint0_linear" x1="25.4382" y1="69.6837" x2="130.304" y2="69.6837" gradientUnits="userSpaceOnUse">
<stop stop-color="#CDBFBA"/>
<stop offset="1" stop-color="#766E6E"/>
</linearGradient>
<linearGradient id="paint1_linear" x1="1.15378" y1="35.6471" x2="90.3062" y2="35.6471" gradientUnits="userSpaceOnUse">
<stop stop-color="#FFF9DF"/>
<stop offset="0.593" stop-color="#FFE177"/>
<stop offset="1" stop-color="#FEB137"/>
</linearGradient>
<linearGradient id="paint2_linear" x1="33.7475" y1="35.6471" x2="68.7094" y2="35.6471" gradientUnits="userSpaceOnUse">
<stop stop-color="#FFE177"/>
<stop offset="1" stop-color="#FEB137"/>
</linearGradient>
<linearGradient id="paint3_linear" x1="49.2848" y1="69.685" x2="127.911" y2="69.685" gradientUnits="userSpaceOnUse">
<stop stop-color="#9E9797"/>
<stop offset="1" stop-color="#5B5555"/>
</linearGradient>
<linearGradient id="paint4_linear" x1="35.7387" y1="90.3816" x2="86.4895" y2="90.3816" gradientUnits="userSpaceOnUse">
<stop stop-color="#9E9797"/>
<stop offset="1" stop-color="#5B5555"/>
</linearGradient>
<linearGradient id="paint5_linear" x1="31.1148" y1="29.9387" x2="57.3168" y2="29.9387" gradientUnits="userSpaceOnUse">
<stop stop-color="#FFE177"/>
<stop offset="1" stop-color="#FEB137"/>
</linearGradient>
<linearGradient id="paint6_linear" x1="28.6206" y1="27.4121" x2="54.8226" y2="27.4121" gradientUnits="userSpaceOnUse">
<stop stop-color="#FE99A0"/>
<stop offset="0.593" stop-color="#FE646F"/>
<stop offset="1" stop-color="#E41F2D"/>
</linearGradient>
<clipPath id="clip0">
<rect width="120.083" height="120" fill="white" transform="translate(0.655548)"/>
</clipPath>
</defs>
</svg>
