<svg width="23" height="22" viewBox="0 0 23 22" fill="none" xmlns="http://www.w3.org/2000/svg">
<ellipse cx="11.1604" cy="11" rx="11.0076" ry="11" fill="#45AF62"/>
<path d="M15.9275 6.55728L15.9275 6.55729L8.94622 13.5338L6.39328 10.9827C6.39327 10.9826 6.39327 10.9826 6.39327 10.9826C6.04163 10.6312 5.47167 10.6313 5.12005 10.9826L5.12004 10.9826C4.76827 11.3341 4.76829 11.9041 5.12003 12.2556L5.12003 12.2556L8.30957 15.4428C8.30958 15.4429 8.30959 15.4429 8.3096 15.4429C8.66122 15.7943 9.23148 15.794 9.58284 15.4429L17.2008 7.83024C17.2008 7.83024 17.2008 7.83024 17.2008 7.83023C17.5525 7.47873 17.5525 6.90878 17.2008 6.5573L16.9887 6.7695L17.2008 6.5573C16.8492 6.20589 16.2792 6.20592 15.9275 6.55728Z" fill="white" stroke="white" stroke-width="0.6"/>
</svg>
