<svg width="100" height="100" viewBox="0 0 100 100" fill="none" xmlns="http://www.w3.org/2000/svg">
<circle cx="50" cy="50" r="50" fill="url(#paint0_linear)"/>
<g opacity="0.8" clip-path="url(#clip0)">
<path d="M68.14 61.6667C68.4046 60.2618 68.3978 58.8191 68.12 57.4167L71.9366 48.2059C71.937 48.1998 71.937 48.1937 71.9366 48.1876C72.5551 46.4943 73.4615 44.9206 74.6158 43.5359C74.903 43.2325 75.0185 42.8051 74.9233 42.3984L73.3583 35.6401C73.3397 35.5694 73.3116 35.5016 73.275 35.4384C73.2683 35.4259 73.2658 35.4109 73.2591 35.3992C73.2525 35.3876 73.2233 35.3592 73.2066 35.3376C73.1725 35.2876 73.1331 35.2415 73.0891 35.2001C73.0601 35.1797 73.0298 35.1613 72.9983 35.1451C72.9577 35.1152 72.9144 35.0889 72.8691 35.0667C72.8063 35.043 72.7408 35.027 72.6741 35.0192C72.655 35.0192 72.6383 35.0067 72.6191 35.0051C72.4594 34.9944 72.3 35.03 72.16 35.1076C72.1475 35.1142 72.1325 35.1167 72.12 35.1242H72.1116L66.2275 38.7967C65.8711 39.0174 65.6499 39.4027 65.6391 39.8217C65.4757 41.621 65.0017 43.3784 64.2383 45.0159V45.0251L62.3308 49.6359C61.3946 49.1382 60.3923 48.7762 59.3541 48.5609C59.7471 45.8483 59.8916 43.1056 59.7858 40.3667C61.337 38.5055 62.0815 36.1023 61.8541 33.6901C61.3333 28.8334 56.9441 25.3259 56.7566 25.1784C56.4748 24.9565 56.0826 24.9398 55.783 25.137C55.4833 25.3341 55.3435 25.7009 55.4358 26.0476C55.865 27.6592 55.4933 29.3601 52.3233 32.8576C50.899 34.2328 50.4476 36.3326 51.1808 38.1717C51.4611 38.8751 51.8628 39.5239 52.3675 40.0884C52.1658 41.3759 52.0075 42.5951 51.8983 43.7826C51.7103 45.7467 51.6619 47.7216 51.7533 49.6926C51.0099 50.0956 50.3139 50.5806 49.6783 51.1384L45.6366 33.8551C45.6366 33.8376 45.62 33.8251 45.615 33.8092C45.6014 33.7537 45.5818 33.6997 45.5566 33.6484L41.4283 26.0242C41.0151 25.2611 40.1423 24.869 39.2974 25.0669C38.4525 25.2648 37.8446 26.0037 37.8133 26.8709L37.5 35.5334C37.5002 35.5959 37.5071 35.6582 37.5208 35.7192C37.5208 35.7326 37.5208 35.7442 37.5208 35.7567L41.6441 53.3542C40.9937 53.3829 40.348 53.4793 39.7175 53.6417L35.1816 42.6876C34.8179 41.8502 33.8532 41.4551 33.0066 41.7967L26.0741 44.6667C25.2257 45.0209 24.8225 45.9937 25.1716 46.8442L31.3233 61.6842C27.7179 61.8735 24.9193 64.9001 25.0123 68.5093C25.1054 72.1185 28.0562 74.9968 31.6666 75.0001H68.3333C70.7151 74.9655 72.8975 73.663 74.0585 71.583C75.2194 69.5031 75.1826 66.9618 73.9618 64.9163C72.741 62.8709 70.5217 61.6322 68.14 61.6667ZM67.2908 40.0967L70.7841 37.9167L69.5475 40.9034C69.3712 41.3287 69.573 41.8163 69.9983 41.9926C70.4235 42.1688 70.9112 41.967 71.0875 41.5417L72.3241 38.5551L73.25 42.5659C72.2594 43.7743 71.4457 45.1175 70.8333 46.5551C69.9645 46.9578 68.9668 46.9787 68.0819 46.6127C67.1969 46.2467 66.5055 45.5272 66.175 44.6284C66.7602 43.1785 67.1359 41.6526 67.2908 40.0967ZM65.3741 46.6392C65.9254 47.3132 66.6409 47.8341 67.4516 48.1517C68.0961 48.4289 68.7893 48.5751 69.4908 48.5817C69.6596 48.5811 69.8282 48.5708 69.9958 48.5509L67.3366 54.9676C66.5404 53.212 65.3086 51.6891 63.7583 50.5434L65.3741 46.6392ZM53.9575 40.6876L58.1441 40.9434C58.17 41.7217 58.1608 42.5267 58.135 43.3442C56.7402 43.4439 55.3386 43.3762 53.96 43.1426C53.855 43.1276 53.7525 43.1159 53.6483 43.1017C53.7316 42.3167 53.8333 41.5217 53.9558 40.6876H53.9575ZM53.56 33.9767C55.7725 31.5359 56.9191 29.6584 57.1858 27.8934C58.7761 29.5297 59.8259 31.6147 60.1933 33.8667C60.3683 35.8272 59.7621 37.7775 58.5066 39.2934C56.8605 39.1934 55.2325 39.0934 53.6225 38.9934C52.9307 38.3467 52.5327 37.4457 52.5206 36.4987C52.5085 35.5518 52.8833 34.6409 53.5583 33.9767H53.56ZM53.4966 44.7626L53.7383 44.7942C54.8121 44.9603 55.896 45.0525 56.9825 45.0701C57.3275 45.0701 57.6908 45.0426 58.055 45.0142C57.9791 46.0867 57.855 47.2067 57.6975 48.3642C57.4916 48.3534 57.29 48.3334 57.0833 48.3334C55.8251 48.3356 54.5764 48.5506 53.39 48.9692C53.3515 47.5661 53.3866 46.162 53.495 44.7626H53.4966ZM47.0508 54.5076L44.6666 44.3517C44.5552 43.9111 44.1112 43.6411 43.6687 43.7447C43.2262 43.8484 42.9483 44.2875 43.0441 44.7317L45.1866 53.8726C44.5976 53.6619 43.989 53.5103 43.37 53.4201L39.7125 37.8117C40.2248 38.045 40.7811 38.166 41.3441 38.1667C41.3966 38.1667 41.4525 38.1592 41.5058 38.1567L42.095 40.6726C42.1584 40.967 42.3759 41.2043 42.6637 41.2932C42.9516 41.382 43.265 41.3086 43.4834 41.1012C43.7019 40.8938 43.7913 40.5846 43.7175 40.2926L43.1275 37.7751C43.6929 37.5248 44.1915 37.1451 44.5833 36.6667L48.3016 52.5659C47.8188 53.1682 47.3996 53.8189 47.0508 54.5076ZM41.9591 36.4242C40.8934 36.6309 39.8052 36.1952 39.1766 35.3101L39.2825 32.3751C39.5724 32.4292 39.8667 32.4571 40.1616 32.4584C40.4465 32.4596 40.7306 32.428 41.0083 32.3642C41.5705 32.2166 42.0963 31.9551 42.5533 31.5959L43.9566 34.1859C43.7894 35.2605 43.0076 36.1372 41.9591 36.4259V36.4242ZM39.6766 26.6892C39.7901 26.6629 39.9073 26.7154 39.9633 26.8176L41.75 30.1217C41.4277 30.4133 41.0428 30.6271 40.625 30.7467C40.1979 30.8251 39.7585 30.8043 39.3408 30.6859L39.4766 26.9309C39.4812 26.8144 39.5631 26.7155 39.6766 26.6892ZM33.6458 43.3334L34.2825 44.8717L31.1991 46.1484C30.8336 46.3019 30.6268 46.6917 30.7047 47.0804C30.7825 47.4691 31.1235 47.7492 31.52 47.7501C31.6294 47.7498 31.7378 47.7283 31.8391 47.6867L34.9225 46.4092L35.56 47.9492L34.0175 48.5884C33.6498 48.7405 33.441 49.1313 33.5189 49.5215C33.5968 49.9117 33.9396 50.1924 34.3375 50.1917C34.4467 50.1913 34.5548 50.1698 34.6558 50.1284L36.1983 49.4892L36.8358 51.0292L33.75 52.3084C33.3823 52.4605 33.1735 52.8513 33.2514 53.2415C33.3293 53.6317 33.6721 53.9124 34.07 53.9117C34.1792 53.9114 34.2873 53.8899 34.3883 53.8484L37.4716 52.5717L38.1458 54.1992C35.4303 55.4387 33.439 57.8623 32.75 60.7667L26.71 46.2034L33.6458 43.3334ZM68.3333 73.3334H31.6666C28.9052 73.3334 26.6666 71.0948 26.6666 68.3334C26.6666 65.572 28.9052 63.3334 31.6666 63.3334C32.1495 63.3318 32.6299 63.4014 33.0925 63.5401C33.3423 63.6155 33.6131 63.5696 33.8241 63.4159C34.0351 63.2622 34.1619 63.0185 34.1666 62.7576C34.2259 59.7876 35.9428 57.1008 38.613 55.7993C41.2832 54.4977 44.4573 54.8005 46.8333 56.5834C47.0433 56.7397 47.3144 56.7882 47.5656 56.7145C47.8167 56.6408 48.0186 56.4534 48.1108 56.2084C49.7389 51.8694 54.2386 49.3171 58.7982 50.1464C63.3578 50.9757 66.6707 54.949 66.6666 59.5834C66.6682 60.5364 66.5264 61.4843 66.2458 62.3951C66.1582 62.6784 66.2278 62.987 66.4286 63.2053C66.6294 63.4236 66.9311 63.5187 67.2208 63.4551C67.5862 63.3746 67.9592 63.3338 68.3333 63.3334C71.0947 63.3334 73.3333 65.572 73.3333 68.3334C73.3333 71.0948 71.0947 73.3334 68.3333 73.3334Z" fill="white"/>
<path d="M57.2375 38.0835C57.499 38.0845 57.7459 37.9626 57.9041 37.7543C58.9445 36.3462 59.3466 34.5662 59.0125 32.8476C58.9414 32.5538 58.7167 32.3215 58.4254 32.2406C58.1341 32.1597 57.8218 32.243 57.6094 32.4581C57.397 32.6733 57.3178 32.9866 57.4025 33.2768C57.602 34.498 57.3043 35.7483 56.5758 36.7485C56.3864 37.001 56.3559 37.3388 56.4971 37.6212C56.6383 37.9035 56.9268 38.0818 57.2425 38.0818L57.2375 38.0835Z" fill="white"/>
<path d="M56.1416 63.3333C55.5219 63.3352 54.9108 63.4777 54.3541 63.75C52.855 61.6987 50.0559 61.0977 47.8469 62.353C45.638 63.6083 44.7216 66.3205 45.7166 68.6583C45.8475 68.9656 46.1493 69.165 46.4833 69.165C46.5956 69.1652 46.7067 69.1425 46.81 69.0983C47.0133 69.0117 47.1739 68.8478 47.2564 68.6428C47.3389 68.4377 47.3366 68.2083 47.25 68.005C47.0685 67.5821 46.975 67.1268 46.975 66.6666C46.975 64.8257 48.4673 63.3333 50.3083 63.3333C51.6012 63.3269 52.7788 64.0761 53.3208 65.25C53.3388 65.2771 53.3583 65.3033 53.3791 65.3283C53.3923 65.3569 53.407 65.3847 53.4233 65.4116C53.4383 65.43 53.46 65.4383 53.4766 65.4558C53.5157 65.4964 53.559 65.5327 53.6058 65.5641C53.6474 65.5962 53.6921 65.6241 53.7391 65.6475C53.7875 65.6678 53.8377 65.6834 53.8891 65.6941C53.9404 65.7076 53.9929 65.7157 54.0458 65.7183C54.154 65.7174 54.2615 65.6994 54.3641 65.665C54.3863 65.6609 54.4083 65.6556 54.43 65.6491C54.457 65.6316 54.4829 65.6124 54.5075 65.5916C54.5374 65.5783 54.5667 65.5633 54.595 65.5466C55.0327 65.1926 55.5787 64.9997 56.1416 65C57.116 65.0016 58.0007 65.5691 58.4083 66.4541C58.5993 66.8729 59.0936 67.0576 59.5125 66.8666C59.9313 66.6756 60.1159 66.1813 59.925 65.7625C59.2464 64.2834 57.7689 63.3348 56.1416 63.3333Z" fill="white"/>
<path d="M39.7366 57.5425C39.6108 57.5833 36.6666 58.6017 36.6666 61.6667C36.6666 62.1269 37.0397 62.5 37.5 62.5C37.9602 62.5 38.3333 62.1269 38.3333 61.6667C38.4013 60.5042 39.1662 59.4985 40.2683 59.1225C40.7055 58.9757 40.941 58.5022 40.7941 58.065C40.6473 57.6278 40.1739 57.3923 39.7366 57.5392V57.5425Z" fill="white"/>
<path d="M51.4641 56.6416C51.5303 56.6584 51.5984 56.6668 51.6666 56.6666C52.0486 56.6662 52.3813 56.4063 52.4741 56.0358C52.8577 54.4797 54.2353 53.3728 55.8375 53.3333C56.2977 53.3321 56.6699 52.9581 56.6687 52.4979C56.6676 52.0376 56.2935 51.6655 55.8333 51.6666C53.4647 51.6981 51.4179 53.329 50.8583 55.6308C50.7465 56.0772 51.0177 56.5298 51.4641 56.6416Z" fill="white"/>
</g>
<defs>
<linearGradient id="paint0_linear" x1="97.2321" y1="7.51025e-06" x2="-21.0792" y2="47.531" gradientUnits="userSpaceOnUse">
<stop stop-color="#917AB8"/>
<stop offset="1" stop-color="#7760A2"/>
</linearGradient>
<clipPath id="clip0">
<rect width="50" height="50" fill="white" transform="translate(25 25)"/>
</clipPath>
</defs>
</svg>
