<svg width="21" height="23" viewBox="0 0 21 23" fill="none" xmlns="http://www.w3.org/2000/svg">
<path d="M10.5 14.6195C9.43995 14.6195 8.57751 13.757 8.57751 12.6969C8.57751 11.6368 9.43995 10.7744 10.5 10.7744C11.5601 10.7744 12.4226 11.6368 12.4226 12.6969C12.4226 13.757 11.5601 14.6195 10.5 14.6195ZM10.5 11.5948C9.89227 11.5948 9.39783 12.0892 9.39783 12.697C9.39783 13.3047 9.89227 13.7992 10.5 13.7992C11.1078 13.7992 11.6023 13.3047 11.6023 12.697C11.6023 12.0892 11.1078 11.5948 10.5 11.5948Z" fill="white"/>
<path d="M12.9851 10.1898C12.7025 10.1976 12.4901 9.88108 12.6061 9.62257C12.7817 9.21188 13.3902 9.33328 13.3953 9.77965C13.3994 9.99991 13.2053 10.1935 12.9851 10.1898Z" fill="white"/>
<path d="M19.6863 1.31217C19.1051 1.31217 18.6109 1.69156 18.4382 2.2157H12.2634C11.9923 1.50568 11.3041 1 10.4999 1C9.69581 1 9.00761 1.50564 8.73649 2.2157H2.56179C2.38912 1.69156 1.89488 1.31217 1.31369 1.31217C0.589312 1.31217 0 1.90148 0 2.62586C0 3.3502 0.589312 3.93955 1.31369 3.93955C1.89488 3.93955 2.38912 3.56015 2.56179 3.03602H4.89895C4.63202 3.21177 4.37985 3.4143 4.14594 3.64219C3.22288 4.54154 2.68677 5.73489 2.63091 7.01006C2.02141 7.18618 1.57438 7.7492 1.57438 8.41472C1.57438 9.22076 2.23014 9.87656 3.03618 9.87656C3.84222 9.87656 4.49802 9.2208 4.49802 8.41472C4.49802 7.75306 4.05616 7.1927 3.452 7.01314C3.5668 4.81105 5.42546 3.03602 7.64133 3.03602H8.61911C8.69544 4.00686 9.50984 4.77348 10.5 4.77348C11.4901 4.77348 12.3045 4.00686 12.3809 3.03602H13.3586C15.5723 3.03602 17.4327 4.81162 17.5478 7.01252C16.9426 7.19139 16.4997 7.75228 16.4997 8.41472C16.4997 9.22076 17.1555 9.87656 17.9616 9.87656C18.7676 9.87656 19.4234 9.2208 19.4234 8.41472C19.4234 7.75002 18.9774 7.18754 18.369 7.01068C18.3132 5.73329 17.7754 4.53797 16.85 3.63829C16.6172 3.41197 16.3663 3.21074 16.1009 3.03597H18.4382C18.6109 3.56011 19.1051 3.93951 19.6863 3.93951C20.4107 3.93955 21 3.3502 21 2.62586C21 1.90148 20.4107 1.31217 19.6863 1.31217ZM1.31369 3.11924C1.04163 3.11924 0.820312 2.89792 0.820312 2.62586C0.820312 2.3538 1.04163 2.13248 1.31369 2.13248C1.58575 2.13248 1.80707 2.3538 1.80707 2.62586C1.80707 2.89792 1.58575 3.11924 1.31369 3.11924ZM3.67771 8.41472C3.67771 8.76844 3.38994 9.05625 3.03618 9.05625C2.68246 9.05625 2.3947 8.76848 2.3947 8.41472C2.3947 8.06096 2.68246 7.7732 3.03618 7.7732C3.38994 7.7732 3.67771 8.06096 3.67771 8.41472ZM10.4999 3.95317C9.91192 3.95317 9.43351 3.47476 9.43351 2.88676C9.43351 2.29872 9.91192 1.82035 10.4999 1.82035C11.088 1.82035 11.5664 2.29876 11.5664 2.88676C11.5664 3.47476 11.088 3.95317 10.4999 3.95317ZM18.603 8.41472C18.603 8.76844 18.3152 9.05625 17.9615 9.05625C17.6078 9.05625 17.32 8.76848 17.32 8.41472C17.32 8.06096 17.6078 7.7732 17.9615 7.7732C18.3152 7.7732 18.603 8.06096 18.603 8.41472ZM19.6863 3.11924C19.4143 3.11924 19.193 2.89792 19.193 2.62586C19.193 2.3538 19.4143 2.13248 19.6863 2.13248C19.9584 2.13248 20.1797 2.3538 20.1797 2.62586C20.1797 2.89792 19.9583 3.11924 19.6863 3.11924Z" fill="white"/>
<path d="M14.1087 10.9889C14.0006 10.7898 13.7517 10.7162 13.5525 10.8243C13.3535 10.9324 13.2798 11.1814 13.3879 11.3805L13.8771 12.2811C14.1081 12.7063 14.1129 13.2165 13.89 13.646L12.7209 15.8984H8.27911L7.10992 13.646C6.887 13.2166 6.8918 12.7063 7.12276 12.2811L10.0898 6.81914V9.34644C10.0898 9.57297 10.2735 9.7566 10.5 9.7566C10.7265 9.7566 10.9101 9.57297 10.9101 9.34644V6.81918L11.738 8.34304C11.8461 8.54213 12.095 8.61579 12.2942 8.50767C12.4932 8.39955 12.5669 8.15051 12.4588 7.95146L11.3079 5.8328C11.2361 5.70069 11.0978 5.61841 10.9475 5.61841H10.0526C9.90227 5.61841 9.76392 5.70064 9.69218 5.8328L6.40195 11.8895C6.04081 12.5544 6.0333 13.3524 6.38189 14.0239L7.35495 15.8984H7.2408C7.01427 15.8984 6.83065 16.0821 6.83065 16.3086C6.83065 16.5351 7.01427 16.7188 7.2408 16.7188H7.50441L6.83614 19.3935C6.8055 19.5161 6.83307 19.6459 6.91079 19.7454C6.98852 19.845 7.10779 19.9031 7.23408 19.9031H13.7659C13.8921 19.9031 14.0114 19.845 14.0891 19.7454C14.1669 19.6459 14.1944 19.5161 14.1638 19.3935L13.4955 16.7188H13.7592C13.9857 16.7188 14.1694 16.5351 14.1694 16.3086C14.1694 16.0821 13.9857 15.8984 13.7592 15.8984H13.6451L14.6181 14.0239C14.9668 13.3523 14.9592 12.5544 14.5981 11.8895L14.1087 10.9889ZM13.2406 19.0829H7.75924L8.34991 16.7188H12.6499L13.2406 19.0829Z" fill="white"/>
</svg>
