<svg width="60" height="60" viewBox="0 0 60 60" fill="none" xmlns="http://www.w3.org/2000/svg">
<circle cx="30" cy="30" r="30" fill="url(#paint0_linear)"/>
<g clip-path="url(#clip0)">
<path d="M32.5409 45.2803C31.8496 45.2803 31.2886 44.7193 31.2886 44.0281V37.533C31.2886 36.8418 31.8496 36.2808 32.5409 36.2808C33.2321 36.2808 33.7932 36.8418 33.7932 37.533V44.0281C33.7932 44.7193 33.2321 45.2803 32.5409 45.2803Z" fill="white"/>
<path d="M27.5319 34.6113C26.8407 34.6113 26.2797 34.0503 26.2797 33.359V30.0197C26.2797 27.9493 27.9644 26.2629 30.0364 26.2629C32.1085 26.2629 33.7932 27.9493 33.7932 30.0197V33.3357C33.7932 34.0269 33.2322 34.5879 32.5409 34.5879C31.8497 34.5879 31.2887 34.0269 31.2887 33.3357V30.0197C31.2887 29.3301 30.7277 28.7674 30.0364 28.7674C29.3452 28.7674 28.7842 29.3301 28.7842 30.0197V33.359C28.7842 34.0503 28.2232 34.6113 27.5319 34.6113Z" fill="white"/>
<path d="M27.5319 45.2803C26.8407 45.2803 26.2797 44.7193 26.2797 44.0281V37.533C26.2797 36.8418 26.8407 36.2808 27.5319 36.2808C28.2232 36.2808 28.7842 36.8418 28.7842 37.533V44.0281C28.7842 44.7193 28.2232 45.2803 27.5319 45.2803Z" fill="white"/>
<path d="M37.55 43.7611C36.8588 43.7611 36.2978 43.2001 36.2978 42.5089V30.0197C36.2978 29.2984 36.1775 28.5938 35.9388 27.9192C35.7084 27.2664 36.049 26.5534 36.7018 26.3214C37.358 26.0926 38.071 26.4316 38.3014 27.0844C38.6353 28.0244 38.8039 29.0129 38.8039 30.0197V42.5089C38.8023 43.2018 38.2413 43.7611 37.55 43.7611Z" fill="white"/>
<path d="M35.3461 25.9623C35.0221 25.9623 34.6999 25.8387 34.4545 25.5883C33.9803 25.1091 33.4309 24.7117 32.8182 24.4061C30.7528 23.3793 28.1631 23.6047 26.2964 24.9922C25.7404 25.4079 24.9557 25.2911 24.5433 24.7351C24.1292 24.1807 24.2461 23.396 24.8004 22.9836C27.4018 21.0501 31.05 20.7295 33.9335 22.1638C34.7951 22.5929 35.5698 23.1539 36.2393 23.8318C36.7252 24.3243 36.7185 25.1174 36.226 25.6033C35.9822 25.8421 35.6633 25.9623 35.3461 25.9623Z" fill="white"/>
<path d="M22.5229 43.7611C21.8317 43.7611 21.2707 43.2001 21.2707 42.5089V30.0197C21.2707 28.6539 21.5746 27.3449 22.1757 26.1327C22.4829 25.5116 23.2309 25.2528 23.8537 25.565C24.4731 25.8706 24.7269 26.6219 24.4214 27.2414C23.9923 28.1063 23.7752 29.0413 23.7752 30.0197V42.5089C23.7752 43.2018 23.2142 43.7611 22.5229 43.7611Z" fill="white"/>
<path d="M42.559 40.1878C41.8678 40.1878 41.3068 39.6268 41.3068 38.9356V30.0195C41.3068 27.0141 40.133 24.1874 38.0008 22.0552C37.5116 21.566 37.5116 20.7729 38.0008 20.2837C38.49 19.7944 39.2831 19.7944 39.7723 20.2837C42.3787 22.8884 43.813 26.3446 43.813 30.0179V38.9339C43.8113 39.6268 43.2503 40.1878 42.559 40.1878Z" fill="white"/>
<path d="M35.8653 20.1903C35.6666 20.1903 35.4679 20.1436 35.2792 20.045C32.2805 18.4555 28.6322 18.3303 25.5283 19.6877C24.8938 19.9599 24.1559 19.6744 23.8787 19.0416C23.6015 18.4071 23.8904 17.6708 24.5232 17.3919C28.2933 15.7456 32.8064 15.9043 36.4513 17.8311C37.0624 18.155 37.2945 18.9113 36.9723 19.5241C36.7485 19.9499 36.3128 20.1903 35.8653 20.1903Z" fill="white"/>
<path d="M17.5139 40.1878C16.8227 40.1878 16.2617 39.6268 16.2617 38.9355V30.0195C16.2617 26.2594 17.7493 22.748 20.4509 20.1283C20.9468 19.6474 21.7415 19.6591 22.2224 20.1584C22.7033 20.6543 22.6916 21.4457 22.194 21.9299C19.9834 24.0704 18.7662 26.9439 18.7662 30.0195V38.9355C18.7662 39.6268 18.2052 40.1878 17.5139 40.1878Z" fill="white"/>
</g>
<defs>
<linearGradient id="paint0_linear" x1="-2.85606e-07" y1="60" x2="60" y2="-2.85606e-07" gradientUnits="userSpaceOnUse">
<stop stop-color="#44A85F"/>
<stop offset="1" stop-color="#48D16E"/>
</linearGradient>
<clipPath id="clip0">
<rect width="28.0374" height="28.0374" fill="white" transform="translate(16.2617 16.2622)"/>
</clipPath>
</defs>
</svg>
