<svg width="90" height="90" viewBox="0 0 90 90" fill="none" xmlns="http://www.w3.org/2000/svg">
<g clip-path="url(#clip0)">
<path d="M76.8226 11.8569V2.7699H13.1774V11.8569C13.1774 19.6182 16.2605 27.0618 21.7488 32.5498L32.0113 42.8123C33.2196 44.0206 33.2196 45.9796 32.0113 47.1877L21.7488 57.4502C16.2607 62.9382 13.1774 70.3818 13.1774 78.1431V87.2301H76.8224V78.1431C76.8224 70.3818 73.7393 62.9382 68.2511 57.4502L57.9886 47.1877C56.7803 45.9794 56.7803 44.0204 57.9886 42.8123L68.2511 32.5498C73.7393 27.0618 76.8226 19.6182 76.8226 11.8569Z" fill="url(#paint0_linear)"/>
<path d="M68.2513 32.5498C73.7393 27.0618 76.8226 19.6182 76.8226 11.8569V2.7699H69.2298H13.1774V11.8569C13.1774 13.026 13.2487 14.1875 13.3862 15.3365H69.0209C68.2451 21.816 65.3199 27.8884 60.6584 32.5498L50.396 42.8123C49.1877 44.0206 49.1877 45.9796 50.396 47.1877L60.6584 57.4502C66.1465 62.9382 69.2298 70.3818 69.2298 78.1431V87.2301H76.8226V78.1431C76.8226 70.3818 73.7395 62.9382 68.2513 57.4502L57.9888 47.1877C56.7805 45.9794 56.7805 44.0204 57.9888 42.8123L68.2513 32.5498Z" fill="url(#paint1_linear)"/>
<path d="M76.2915 0H13.7086C10.6591 0 8.18671 2.47235 8.18671 5.52194C8.18671 8.57171 10.6591 11.0439 13.7086 11.0439H76.2915C79.3412 11.0439 81.8134 8.57153 81.8134 5.52194C81.8134 2.47235 79.3411 0 76.2915 0Z" fill="url(#paint2_linear)"/>
<path d="M63.578 69.581C62.4027 68.7092 61.1438 67.9375 59.8204 67.2655C53.2173 63.9131 48.9855 57.2136 48.9855 49.8081V49.5025C48.9855 46.4416 50.2014 43.506 52.3658 41.3416L62.0307 31.6767C63.6638 30.0436 61.1593 28.4178 57.6094 27.0629C49.498 23.9667 40.502 23.9667 32.3907 27.0629C28.8408 28.4178 26.3364 30.0436 27.9694 31.6767L37.6344 41.3416C39.7988 43.506 41.0147 46.4416 41.0147 49.5025V49.8081C41.0147 57.2137 36.7829 63.9131 30.1797 67.2655C28.8564 67.9373 27.5974 68.7092 26.4221 69.5808C22.037 72.8333 19.5737 77.2447 19.5737 81.8446H70.4265C70.4265 77.2449 67.9631 72.8335 63.578 69.581Z" fill="url(#paint3_linear)"/>
<path d="M76.2915 78.9559H13.7086C10.6589 78.9559 8.18671 81.4283 8.18671 84.4779C8.18671 87.5276 10.6591 89.9998 13.7086 89.9998H76.2915C79.3412 89.9998 81.8134 87.5275 81.8134 84.4779C81.8134 81.4283 79.3411 78.9559 76.2915 78.9559Z" fill="url(#paint4_linear)"/>
</g>
<defs>
<linearGradient id="paint0_linear" x1="19.0588" y1="45" x2="72.1813" y2="45" gradientUnits="userSpaceOnUse">
<stop stop-color="#FFF9DF"/>
<stop offset="0.593" stop-color="#FFE177"/>
<stop offset="1" stop-color="#FEB137"/>
</linearGradient>
<linearGradient id="paint1_linear" x1="18.353" y1="45" x2="84.0085" y2="45" gradientUnits="userSpaceOnUse">
<stop stop-color="#FFE177"/>
<stop offset="1" stop-color="#FEB137"/>
</linearGradient>
<linearGradient id="paint2_linear" x1="14.3116" y1="5.52194" x2="75.7209" y2="5.52194" gradientUnits="userSpaceOnUse">
<stop stop-color="#FE896A"/>
<stop offset="0.0001" stop-color="#FE8A6B"/>
<stop offset="1" stop-color="#EC5D36"/>
</linearGradient>
<linearGradient id="paint3_linear" x1="33.8824" y1="53.2927" x2="55.4298" y2="53.2927" gradientUnits="userSpaceOnUse">
<stop stop-color="#F2FBFF"/>
<stop offset="0.593" stop-color="#FAF7F7"/>
<stop offset="1" stop-color="#F3EAE6"/>
</linearGradient>
<linearGradient id="paint4_linear" x1="14.3116" y1="84.478" x2="75.9874" y2="84.478" gradientUnits="userSpaceOnUse">
<stop stop-color="#FE896A"/>
<stop offset="0.593" stop-color="#F5734F"/>
<stop offset="1" stop-color="#EC5D36"/>
</linearGradient>
<clipPath id="clip0">
<rect width="90" height="90" fill="white"/>
</clipPath>
</defs>
</svg>
