<svg width="129" height="42" viewBox="0 0 129 42" fill="none" xmlns="http://www.w3.org/2000/svg">
<path d="M56.7062 20.8288H65.5115V23.5285H53.3359V4.06919H56.7062V20.8288Z" fill="white"/>
<path d="M71.7719 23.5285H68.5349V9.06766H71.7719V23.5285ZM68.335 5.31213C68.335 4.81317 68.4905 4.39886 68.8013 4.06919C69.121 3.73952 69.5739 3.57469 70.16 3.57469C70.7462 3.57469 71.1991 3.73952 71.5188 4.06919C71.8385 4.39886 71.9984 4.81317 71.9984 5.31213C71.9984 5.80217 71.8385 6.21203 71.5188 6.5417C71.1991 6.86245 70.7462 7.02283 70.16 7.02283C69.5739 7.02283 69.121 6.86245 68.8013 6.5417C68.4905 6.21203 68.335 5.80217 68.335 5.31213Z" fill="white"/>
<path d="M80.5367 17.3272L79.098 18.8107V23.5285H75.861V3H79.098V14.8413L80.1104 13.5716L84.0935 9.06766H87.9832L82.6281 15.0952L88.5561 23.5285H84.8128L80.5367 17.3272Z" fill="white"/>
<path d="M96.7347 23.7958C94.6833 23.7958 93.0181 23.1498 91.7393 21.8579C90.4693 20.557 89.8344 18.8285 89.8344 16.6723V16.2713C89.8344 14.8279 90.1097 13.5404 90.6603 12.4089C91.2198 11.2684 92.0013 10.3819 93.0048 9.74927C94.0083 9.11666 95.1273 8.80036 96.3617 8.80036C98.3244 8.80036 99.8386 9.42851 100.904 10.6848C101.979 11.9411 102.516 13.7186 102.516 16.0174V17.3272H93.098C93.1957 18.5211 93.5909 19.4655 94.2836 20.1605C94.9852 20.8555 95.8644 21.203 96.9212 21.203C98.4043 21.203 99.6121 20.6016 100.545 19.3987L102.29 21.0693C101.712 21.9336 100.94 22.6063 99.9718 23.0874C99.0126 23.5597 97.9336 23.7958 96.7347 23.7958ZM96.3484 11.4065C95.4603 11.4065 94.741 11.7184 94.1904 12.3421C93.6487 12.9658 93.3023 13.8345 93.1513 14.9482H99.319V14.7076C99.248 13.6206 98.9594 12.8009 98.4532 12.2485C97.947 11.6872 97.2454 11.4065 96.3484 11.4065Z" fill="white"/>
<path d="M110.375 23.5285H105.713V4.06919H110.375V23.5285Z" fill="white"/>
<path d="M128.998 7.69108H123.176V23.5285H118.5V7.69108H112.786V4.06919H128.998V7.69108Z" fill="white"/>
<path d="M52.7206 38.3347H55.3058V38.9248H51.9976V33.4519H52.7206V38.3347Z" fill="white"/>
<path d="M59.977 36.3951H57.6129V38.3347H60.3592V38.9248H56.8936V33.4519H60.3217V34.0458H57.6129V35.805H59.977V36.3951Z" fill="white"/>
<path d="M65.0342 37.4965H62.7488L62.2355 38.9248H61.4936L63.5767 33.4519H64.2062L66.293 38.9248H65.5549L65.0342 37.4965ZM62.9661 36.9025H64.8206L63.8915 34.3428L62.9661 36.9025Z" fill="white"/>
<path d="M69.7953 36.7108H68.514V38.9248H67.7909V33.4519H69.5968C70.2112 33.4519 70.6833 33.5922 71.013 33.8729C71.3452 34.1536 71.5113 34.562 71.5113 35.0983C71.5113 35.4391 71.4188 35.736 71.234 35.9891C71.0517 36.2422 70.7969 36.4314 70.4697 36.5567L71.751 38.8797V38.9248H70.9792L69.7953 36.7108ZM68.514 36.1207H69.6192C69.9764 36.1207 70.2599 36.028 70.4697 35.8425C70.682 35.6571 70.7882 35.409 70.7882 35.0983C70.7882 34.76 70.687 34.5006 70.4847 34.3202C70.2849 34.1398 69.9951 34.0483 69.6155 34.0458H68.514V36.1207Z" fill="white"/>
<path d="M77.4826 38.9248H76.7595L74.0132 34.7074V38.9248H73.2901V33.4519H74.0132L76.767 37.6882V33.4519H77.4826V38.9248Z" fill="white"/>
<path d="M80.2992 38.9248H79.5799V33.4519H80.2992V38.9248Z" fill="white"/>
<path d="M86.5778 38.9248H85.8547L83.1084 34.7074V38.9248H82.3853V33.4519H83.1084L85.8622 37.6882V33.4519H86.5778V38.9248Z" fill="white"/>
<path d="M92.6502 38.2069C92.4654 38.4725 92.2069 38.6717 91.8747 38.8045C91.545 38.9348 91.1603 39 90.7207 39C90.2761 39 89.8815 38.896 89.5368 38.688C89.1921 38.4775 88.9249 38.1793 88.735 37.7934C88.5477 37.4075 88.4516 36.9602 88.4466 36.4515V35.9741C88.4466 35.1497 88.6376 34.5107 89.0198 34.0571C89.4044 33.6035 89.9439 33.3767 90.6383 33.3767C91.2078 33.3767 91.6661 33.5233 92.0133 33.8165C92.3605 34.1072 92.5728 34.5207 92.6502 35.0569H91.9309C91.796 34.3327 91.3664 33.9706 90.6421 33.9706C90.16 33.9706 89.7941 34.141 89.5443 34.4818C89.297 34.8201 89.1721 35.3113 89.1696 35.9553V36.4026C89.1696 37.0166 89.3095 37.5052 89.5893 37.8686C89.869 38.2294 90.2474 38.4099 90.7245 38.4099C90.9942 38.4099 91.2303 38.3798 91.4326 38.3196C91.6349 38.2595 91.8022 38.158 91.9346 38.0152V36.786H90.672V36.1996H92.6502V38.2069Z" fill="white"/>
<path d="M101.303 37.1882C101.236 37.7671 101.022 38.2144 100.663 38.5301C100.305 38.8434 99.8297 39 99.2352 39C98.5908 39 98.0738 38.7682 97.6841 38.3046C97.297 37.841 97.1034 37.2208 97.1034 36.444V35.9177C97.1034 35.409 97.1933 34.9617 97.3732 34.5758C97.5555 34.1899 97.8128 33.8942 98.145 33.6887C98.4772 33.4807 98.8618 33.3767 99.2989 33.3767C99.8784 33.3767 100.343 33.5396 100.693 33.8654C101.042 34.1886 101.246 34.6372 101.303 35.2111H100.58C100.518 34.775 100.382 34.4593 100.172 34.2638C99.9646 34.0684 99.6736 33.9706 99.2989 33.9706C98.8393 33.9706 98.4784 34.141 98.2161 34.4818C97.9564 34.8226 97.8265 35.3075 97.8265 35.9365V36.4665C97.8265 37.0604 97.9501 37.5328 98.1974 37.8836C98.4447 38.2344 98.7906 38.4099 99.2352 38.4099C99.6348 38.4099 99.9408 38.3196 100.153 38.1392C100.368 37.9563 100.51 37.6393 100.58 37.1882H101.303Z" fill="white"/>
<path d="M106.139 36.3951H103.775V38.3347H106.522V38.9248H103.056V33.4519H106.484V34.0458H103.775V35.805H106.139V36.3951Z" fill="white"/>
<path d="M112.377 38.9248H111.654L108.907 34.7074V38.9248H108.184V33.4519H108.907L111.661 37.6882V33.4519H112.377V38.9248Z" fill="white"/>
<path d="M118.078 34.0458H116.325V38.9248H115.609V34.0458H113.86V33.4519H118.078V34.0458Z" fill="white"/>
<path d="M122.738 36.3951H120.374V38.3347H123.12V38.9248H119.655V33.4519H123.083V34.0458H120.374V35.805H122.738V36.3951Z" fill="white"/>
<path d="M126.784 36.7108H125.503V38.9248H124.779V33.4519H126.585C127.2 33.4519 127.672 33.5922 128.001 33.8729C128.334 34.1536 128.5 34.562 128.5 35.0983C128.5 35.4391 128.407 35.736 128.223 35.9891C128.04 36.2422 127.785 36.4314 127.458 36.5567L128.74 38.8797V38.9248H127.968L126.784 36.7108ZM125.503 36.1207H126.608C126.965 36.1207 127.248 36.028 127.458 35.8425C127.671 35.6571 127.777 35.409 127.777 35.0983C127.777 34.76 127.676 34.5006 127.473 34.3202C127.273 34.1398 126.984 34.0483 126.604 34.0458H125.503V36.1207Z" fill="white"/>
<circle cx="34.4961" cy="27.7886" r="10.5405" fill="#69D2E7"/>
<circle cx="33.0589" cy="8.14497" r="8.14494" fill="#F98F6F"/>
<circle cx="16.769" cy="24.4349" r="16.769" fill="#9D87C3"/>
</svg>
