<svg width="100" height="100" viewBox="0 0 100 100" fill="none" xmlns="http://www.w3.org/2000/svg">
<path d="M96.5284 61.5916C97.7826 61.5916 98.8649 60.7039 99.1014 59.4724C99.6902 56.4053 100 53.2388 100 50C100 46.7612 99.6902 43.5947 99.1014 40.5276C98.8649 39.2961 97.7826 38.4084 96.5284 38.4084H90.3961C89.2806 38.4084 88.2927 37.7002 87.9226 36.648C87.4384 35.2726 86.882 33.9312 86.2571 32.6286C85.7741 31.6222 85.971 30.422 86.7604 29.6327L91.0939 25.2992C91.9812 24.412 92.1176 23.0184 91.4137 21.9796C89.6282 19.3447 87.599 16.8884 85.3561 14.6455L85.3545 14.6439C83.1116 12.401 80.6553 10.3718 78.0204 8.58628C76.9818 7.88255 75.588 8.01902 74.7008 8.90608L70.3673 13.2396C69.5778 14.029 68.3778 14.2259 67.3714 13.7429C66.069 13.118 64.7276 12.5616 63.352 12.0775C62.2998 11.7073 61.5916 10.7194 61.5916 9.60392V3.47157C61.5916 2.21745 60.7039 1.1351 59.4724 0.898628C56.4053 0.309804 53.2388 0 50 0C46.7612 0 43.5947 0.309804 40.5276 0.898628C39.2961 1.1351 38.4084 2.21745 38.4084 3.47157V9.60392C38.4084 10.7194 37.7002 11.7073 36.648 12.0775C35.2726 12.5616 33.9312 13.118 32.6286 13.7429C31.6222 14.2259 30.422 14.029 29.6327 13.2396L25.2992 8.90608C24.412 8.01882 23.0184 7.88235 21.9796 8.58628C19.3445 10.3718 16.888 12.4012 14.6449 14.6443L14.6443 14.6447C12.4012 16.8878 10.3718 19.3443 8.58628 21.9794C7.88255 23.018 8.01902 24.4118 8.90608 25.299L13.2396 29.6326C14.029 30.422 14.2259 31.622 13.7429 32.6284C13.118 33.9308 12.5616 35.2722 12.0775 36.6478C11.7073 37.7 10.7194 38.4082 9.60392 38.4082H3.47157C2.21745 38.4082 1.1351 39.2959 0.898628 40.5275C0.309804 43.5947 0 46.7612 0 50C0 53.2388 0.309804 56.4053 0.898628 59.4724C1.1351 60.7039 2.21745 61.5916 3.47157 61.5916H9.60392C10.7194 61.5916 11.7073 62.2998 12.0775 63.352C12.5616 64.7275 13.118 66.0688 13.7429 67.3714C14.2259 68.3778 14.029 69.578 13.2396 70.3673L8.90608 74.7008C8.01882 75.588 7.88235 76.9816 8.58628 78.0204C10.3718 80.6555 12.4012 83.112 14.6443 85.3551L14.6449 85.3555C16.888 87.5986 19.3443 89.628 21.9796 91.4135C23.0182 92.1173 24.412 91.9808 25.2992 91.0937L29.6327 86.7602C30.4222 85.9708 31.6222 85.7739 32.6286 86.2569C33.931 86.8818 35.2724 87.4382 36.648 87.9224C37.7002 88.2925 38.4084 89.2804 38.4084 90.3959V96.5282C38.4084 97.7824 39.2961 98.8647 40.5276 99.1012C43.5947 99.6902 46.7612 100 50 100C53.2388 100 56.4053 99.6902 59.4724 99.1014C60.7039 98.8649 61.5916 97.7826 61.5916 96.5284V90.3961C61.5916 89.2806 62.2998 88.2927 63.352 87.9226C64.7275 87.4384 66.0688 86.882 67.3714 86.2571C68.3778 85.7741 69.578 85.971 70.3673 86.7604L74.7008 91.0939C75.588 91.9812 76.9816 92.1176 78.0204 91.4137C80.6553 89.6282 83.1116 87.599 85.3545 85.3561L85.3561 85.3545C87.599 83.1116 89.6282 80.6553 91.4137 78.0204C92.1175 76.9818 91.981 75.588 91.0939 74.7008L86.7604 70.3673C85.971 69.5778 85.7741 68.3778 86.2571 67.3714C86.882 66.069 87.4384 64.7276 87.9226 63.352C88.2927 62.2998 89.2806 61.5916 90.3961 61.5916H96.5284Z" fill="url(#paint0_linear)"/>
<path d="M53.7451 9.16863V3.47255C53.7451 2.22078 52.8616 1.13667 51.6324 0.900196C49.8131 0.55 47.9586 0.302353 46.0765 0.154902C47.3706 0.054902 48.6784 0 50 0C53.2392 0 56.4059 0.309804 59.4726 0.898039C60.7039 1.13529 61.5922 2.21765 61.5922 3.47255V9.60392C61.5922 10.3412 61.9 11.0196 62.4118 11.5039H56.0804C54.7906 11.5039 53.7451 10.4584 53.7451 9.16863Z" fill="url(#paint1_linear)"/>
<path d="M62.4098 88.4961C61.8981 88.9765 61.5922 89.6608 61.5922 90.3961V96.5275C61.5922 97.7824 60.7039 98.8647 59.4726 99.102C56.4059 99.6902 53.2392 100 50 100C48.6784 100 47.3706 99.9451 46.0765 99.8451C47.9586 99.6979 49.8131 99.45 51.6324 99.0998C52.8616 98.8632 53.7451 97.7792 53.7451 96.5275V90.8314C53.7451 89.5416 54.7906 88.4961 56.0804 88.4961H62.4098Z" fill="url(#paint2_linear)"/>
<path d="M99.1014 40.5277C98.8649 39.2961 97.7826 38.4084 96.5285 38.4084H90.3961C89.2806 38.4084 88.2928 37.7002 87.9226 36.648C87.4385 35.2726 86.882 33.9312 86.2571 32.6286C85.7741 31.6222 85.971 30.422 86.7604 29.6326L91.094 25.299C91.9812 24.4118 92.1177 23.0182 91.4138 21.9794C89.6283 19.3445 87.5991 16.8882 85.3561 14.6453L85.3545 14.6437C83.1116 12.4008 80.6553 10.3716 78.0204 8.58609C76.9818 7.88236 75.5881 8.01883 74.7008 8.90589L72.9757 10.631C74.5665 11.8773 76.0804 13.2167 77.5075 14.6437L77.509 14.6453C79.752 16.8882 81.7812 19.3445 83.5667 21.9794C84.2704 23.018 84.1339 24.4118 83.2469 25.299L78.9134 29.6326C78.1239 30.422 77.9271 31.622 78.41 32.6286C79.0349 33.931 79.5914 35.2724 80.0755 36.648C80.4457 37.7002 81.4336 38.4084 82.549 38.4084H88.6814C89.9355 38.4084 91.0179 39.2961 91.2543 40.5277C91.8432 43.5947 92.153 46.761 92.153 50C92.153 53.239 91.8432 56.4053 91.2543 59.4724C91.0179 60.7039 89.9355 61.5916 88.6814 61.5916H82.549C81.4336 61.5916 80.4457 62.2998 80.0755 63.352C79.5914 64.7275 79.0349 66.0688 78.41 67.3714C77.9271 68.3779 78.1239 69.578 78.9134 70.3675L83.2469 74.701C84.1341 75.5882 84.2706 76.9818 83.5667 78.0206C81.7812 80.6555 79.752 83.1118 77.509 85.3547L77.5075 85.3563C76.0804 86.7831 74.5665 88.1228 72.9757 89.369L74.7008 91.0941C75.5881 91.9814 76.9816 92.1179 78.0204 91.4139C80.6553 89.6284 83.1116 87.5992 85.3545 85.3563L85.3561 85.3547C87.5991 83.1118 89.6283 80.6555 91.4138 78.0206C92.1175 76.982 91.981 75.5882 91.094 74.701L86.7604 70.3675C85.971 69.578 85.7741 68.378 86.2571 67.3714C86.882 66.069 87.4385 64.7277 87.9226 63.352C88.2928 62.2998 89.2806 61.5916 90.3961 61.5916H96.5285C97.7826 61.5916 98.8649 60.7039 99.1014 59.4724C99.6902 56.4053 100 53.239 100 50C100 46.761 99.6902 43.5947 99.1014 40.5277Z" fill="url(#paint3_linear)"/>
<path d="M50 81.5943C67.4491 81.5943 81.5943 67.4491 81.5943 50C81.5943 32.551 67.4491 18.4057 50 18.4057C32.551 18.4057 18.4057 32.551 18.4057 50C18.4057 67.4491 32.551 81.5943 50 81.5943Z" fill="url(#paint4_linear)"/>
<path d="M72.3406 27.6594C71.44 26.7588 70.4977 25.9261 69.5212 25.1569C79.2892 37.5563 78.4565 55.581 67.0187 67.0186C55.5808 78.4563 37.5563 79.2892 25.1569 69.5212C25.6763 70.1804 26.2247 70.8243 26.8034 71.4502C27.0816 71.7512 27.3669 71.852 27.6592 72.1443C39.9977 84.4827 60.002 84.4827 72.3404 72.1443C72.6328 71.852 72.9183 71.7512 73.1969 71.4504C84.672 59.0582 84.3865 39.7053 72.3406 27.6594Z" fill="url(#paint5_linear)"/>
<path d="M50 55.0819C58.6033 55.0819 65.5776 48.1076 65.5776 39.5043C65.5776 30.901 58.6033 23.9266 50 23.9266C41.3967 23.9266 34.4224 30.901 34.4224 39.5043C34.4224 48.1076 41.3967 55.0819 50 55.0819Z" fill="url(#paint6_linear)"/>
<path d="M27.6594 72.3406C39.9978 84.679 60.0021 84.679 72.3406 72.3406C72.6331 72.0481 72.9165 71.7498 73.1953 71.4488C68.9619 62.9212 60.1663 57.0588 50 57.0588C39.8337 57.0588 31.038 62.9212 26.8047 71.4488C27.0835 71.7498 27.3668 72.0481 27.6594 72.3406Z" fill="url(#paint7_linear)"/>
<path d="M73.1953 71.4489C72.0384 69.1185 70.539 66.9892 68.7659 65.1222C68.2134 65.7718 67.6324 66.4053 67.0188 67.0187C56.159 77.8785 39.3622 79.1767 27.079 70.9194C26.9867 71.0951 26.8933 71.2704 26.8049 71.4487C27.0835 71.7496 27.3671 72.0479 27.6596 72.3404C39.998 84.6788 60.0024 84.6788 72.3408 72.3404C72.6332 72.0481 72.9165 71.7498 73.1953 71.4489Z" fill="url(#paint8_linear)"/>
<defs>
<linearGradient id="paint0_linear" x1="0" y1="50" x2="100" y2="50" gradientUnits="userSpaceOnUse">
<stop stop-color="#FFA78F"/>
<stop offset="0.593" stop-color="#FF7955"/>
<stop offset="1" stop-color="#F76038"/>
</linearGradient>
<linearGradient id="paint1_linear" x1="38.5816" y1="5.75196" x2="96.4033" y2="5.75196" gradientUnits="userSpaceOnUse">
<stop stop-color="#FB6B44"/>
<stop offset="0.7043" stop-color="#FB6138"/>
<stop offset="1" stop-color="#EC5D36"/>
</linearGradient>
<linearGradient id="paint2_linear" x1="38.5824" y1="94.2481" x2="96.3973" y2="94.2481" gradientUnits="userSpaceOnUse">
<stop stop-color="#FD5D36"/>
<stop offset="0.7043" stop-color="#FB6138"/>
<stop offset="1" stop-color="#EC5D36"/>
</linearGradient>
<linearGradient id="paint3_linear" x1="38.0392" y1="50" x2="100.045" y2="50" gradientUnits="userSpaceOnUse">
<stop stop-color="#FF9477"/>
<stop offset="0.7043" stop-color="#FC6840"/>
<stop offset="1" stop-color="#FE582B"/>
</linearGradient>
<linearGradient id="paint4_linear" x1="27.6537" y1="27.6743" x2="72.3282" y2="72.3488" gradientUnits="userSpaceOnUse">
<stop stop-color="#FE7664"/>
<stop offset="0.7043" stop-color="#EF572E"/>
<stop offset="1" stop-color="#FE5C30"/>
</linearGradient>
<linearGradient id="paint5_linear" x1="57.5711" y1="57.5756" x2="73.1176" y2="73.1221" gradientUnits="userSpaceOnUse">
<stop stop-color="#EB471B"/>
<stop offset="1" stop-color="#E34318"/>
</linearGradient>
<linearGradient id="paint6_linear" x1="34.4224" y1="39.5043" x2="65.5776" y2="39.5043" gradientUnits="userSpaceOnUse">
<stop stop-color="#FFF9DF"/>
<stop offset="0.593" stop-color="#FFE177"/>
<stop offset="1" stop-color="#FEB137"/>
</linearGradient>
<linearGradient id="paint7_linear" x1="26.8047" y1="69.3267" x2="73.1953" y2="69.3267" gradientUnits="userSpaceOnUse">
<stop stop-color="#FFF9DF"/>
<stop offset="0.593" stop-color="#FFE177"/>
<stop offset="1" stop-color="#FEB137"/>
</linearGradient>
<linearGradient id="paint8_linear" x1="35.098" y1="73.3583" x2="75.4979" y2="73.3583" gradientUnits="userSpaceOnUse">
<stop stop-color="#FFE177"/>
<stop offset="1" stop-color="#FEB137"/>
</linearGradient>
</defs>
</svg>
