<svg width="58" height="60" viewBox="0 0 58 60" fill="none" xmlns="http://www.w3.org/2000/svg">
<g clip-path="url(#clip0)">
<path d="M43.6425 59.0176C47.3114 59.0176 50.2856 55.9912 50.2856 52.2579C50.2856 48.5246 47.3114 45.4981 43.6425 45.4981C39.9736 45.4981 36.9993 48.5246 36.9993 52.2579C36.9993 55.9912 39.9736 59.0176 43.6425 59.0176Z" fill="url(#paint0_linear)"/>
<path d="M50.2862 52.2578C50.2862 55.9904 47.3118 59.0169 43.6419 59.0169C41.3686 59.0169 39.3624 57.8548 38.1666 56.0833C38.4373 56.1125 38.7134 56.1271 38.9914 56.1271C43.2583 56.1271 46.7185 52.6062 46.7185 48.2643C46.7185 47.52 46.6164 46.7994 46.4264 46.119C48.7049 47.19 50.2862 49.536 50.2862 52.2578Z" fill="url(#paint1_linear)"/>
<path d="M44.9113 50.6408L32.6 38.1135C31.8109 37.3105 30.5315 37.3105 29.7423 38.1135C28.9532 38.9165 28.9532 40.2184 29.7423 41.0214L42.0537 53.5486C42.8428 54.3516 44.1222 54.3516 44.9114 53.5486C45.7004 52.7456 45.7004 51.4437 44.9113 50.6408Z" fill="url(#paint2_linear)"/>
<path d="M51.3562 16.9792C55.0251 16.9792 57.9994 13.9528 57.9994 10.2195C57.9994 6.4862 55.0251 3.45978 51.3562 3.45978C47.6873 3.45978 44.7131 6.4862 44.7131 10.2195C44.7131 13.9528 47.6873 16.9792 51.3562 16.9792Z" fill="url(#paint3_linear)"/>
<path d="M58 10.2195C58 13.952 55.0256 16.9785 51.3557 16.9785C49.0823 16.9785 47.0762 15.8164 45.8804 14.0449C46.151 14.0741 46.4272 14.0887 46.7051 14.0887C50.9721 14.0887 54.4323 10.5678 54.4323 6.22594C54.4323 5.48163 54.3302 4.76103 54.1401 4.0806C56.4186 5.15159 58 7.49759 58 10.2195Z" fill="url(#paint4_linear)"/>
<path d="M39.4958 25.1963L51.807 12.6691C52.5961 11.8661 52.5961 10.5643 51.807 9.76127C51.0179 8.95828 49.7384 8.95828 48.9493 9.76127L36.6381 22.2885C35.8489 23.0915 35.8489 24.3933 36.6381 25.1963C37.4272 25.9993 38.7066 25.9993 39.4958 25.1963Z" fill="url(#paint5_linear)"/>
<path d="M38.0741 43.6846C36.6491 44.1544 35.1298 44.409 33.5513 44.409C33.3875 44.409 33.2249 44.4067 33.0634 44.4009L29.7426 41.0218C29.348 40.6203 29.1501 40.0938 29.1501 39.5672C29.1501 39.0419 29.348 38.5153 29.7426 38.1138C30.5318 37.3107 31.8113 37.3107 32.5994 38.1138L38.0741 43.6846Z" fill="url(#paint6_linear)"/>
<path d="M44.7237 19.8762L39.4957 25.1958C39.1011 25.5974 38.5836 25.7987 38.0662 25.7987C37.5499 25.7987 37.0324 25.5974 36.6378 25.1958C35.8485 24.3939 35.8485 23.0909 36.6378 22.2889L41.7065 17.1313C42.8324 17.902 43.848 18.8266 44.7237 19.8762Z" fill="url(#paint7_linear)"/>
<path d="M29 44.4084C37.0869 44.4084 43.6427 37.7376 43.6427 29.5088C43.6427 21.28 37.0869 14.6092 29 14.6092C20.913 14.6092 14.3572 21.28 14.3572 29.5088C14.3572 37.7376 20.913 44.4084 29 44.4084Z" fill="url(#paint8_linear)"/>
<path d="M17.5862 20.1761L21.5563 24.2158C22.3455 25.0187 23.6249 25.0187 24.414 24.2158C25.2032 23.4128 25.2032 22.1109 24.414 21.3079L20.5286 17.3543C19.4242 18.1528 18.4341 19.1038 17.5862 20.1761Z" fill="url(#paint9_linear)"/>
<path d="M19.9345 32.2383L15.9564 36.2862C16.5851 37.5365 17.383 38.6838 18.3182 39.6986L22.7921 35.1461C23.5813 34.3432 23.5813 33.0413 22.7921 32.2383C22.0031 31.4353 20.7237 31.4353 19.9345 32.2383Z" fill="url(#paint10_linear)"/>
<path d="M29 14.6092C27.9963 14.6092 27.0165 14.7122 26.0697 14.9079C32.7524 16.2891 37.7822 22.3011 37.7822 29.5088C37.7822 36.7165 32.7524 42.7285 26.0697 44.1098C27.0165 44.3054 27.9964 44.4084 29 44.4084C37.087 44.4084 43.6427 37.7376 43.6427 29.5088C43.6427 21.28 37.087 14.6092 29 14.6092Z" fill="url(#paint11_linear)"/>
<path d="M24.8717 17.8943L12.5605 5.36704C11.7713 4.56405 10.4919 4.56405 9.70276 5.36704C8.91362 6.17003 8.91362 7.47188 9.70276 8.27487L22.014 20.8021C22.8031 21.6051 24.0825 21.6051 24.8717 20.8021C25.6608 19.9991 25.6608 18.6972 24.8717 17.8943Z" fill="url(#paint12_linear)"/>
<path d="M12.5605 5.36704C11.7713 4.56405 10.4919 4.56405 9.70276 5.36704C8.91362 6.17002 8.91362 7.47188 9.70276 8.27487L16.4037 15.0934C17.6274 14.4496 18.6286 13.4307 19.2613 12.1855L12.5605 5.36704Z" fill="url(#paint13_linear)"/>
<path d="M11.0713 13.5194C14.7402 13.5194 17.7144 10.493 17.7144 6.75971C17.7144 3.02642 14.7402 0 11.0713 0C7.40234 0 4.4281 3.02642 4.4281 6.75971C4.4281 10.493 7.40234 13.5194 11.0713 13.5194Z" fill="url(#paint14_linear)"/>
<path d="M17.715 6.75969C17.715 10.4923 14.7406 13.5187 11.0707 13.5187C8.79728 13.5187 6.79116 12.3566 5.59534 10.5852C5.866 10.6143 6.14213 10.6289 6.42007 10.6289C10.6871 10.6289 14.1473 7.108 14.1473 2.76616C14.1473 2.02185 14.0451 1.30126 13.8551 0.620819C16.1337 1.6917 17.715 4.03782 17.715 6.75969Z" fill="url(#paint15_linear)"/>
<path d="M8.71811 45.2207L21.0294 32.6935C21.8185 31.8905 21.8185 30.5886 21.0294 29.7856C20.2402 28.9827 18.9608 28.9827 18.1717 29.7856L5.86053 42.3129C5.07139 43.1159 5.07139 44.4177 5.86053 45.2207C6.64956 46.0237 7.92909 46.0237 8.71811 45.2207Z" fill="url(#paint16_linear)"/>
<path d="M14.5434 39.2934C13.9107 38.0481 12.9095 37.0293 11.6858 36.3855L5.86053 42.3129C5.07139 43.1159 5.07139 44.4177 5.86053 45.2207C6.64967 46.0237 7.92908 46.0237 8.71822 45.2207L14.5434 39.2934Z" fill="url(#paint17_linear)"/>
<path d="M6.64316 51.1837C10.3121 51.1837 13.2863 48.1573 13.2863 44.424C13.2863 40.6907 10.3121 37.6643 6.64316 37.6643C2.97424 37.6643 0 40.6907 0 44.424C0 48.1573 2.97424 51.1837 6.64316 51.1837Z" fill="url(#paint18_linear)"/>
<path d="M13.287 44.424C13.287 48.1566 10.3126 51.183 6.64267 51.183C4.3693 51.183 2.36318 50.021 1.16736 48.2495C1.43803 48.2787 1.71415 48.2932 1.9921 48.2932C6.25908 48.2932 9.71929 44.7723 9.71929 40.4305C9.71929 39.6862 9.61705 38.9656 9.42713 38.2852C11.7056 39.3562 13.287 41.7022 13.287 44.424Z" fill="url(#paint19_linear)"/>
</g>
<defs>
<linearGradient id="paint0_linear" x1="37.5372" y1="52.2579" x2="51.3991" y2="52.2579" gradientUnits="userSpaceOnUse">
<stop stop-color="#FDB4BA"/>
<stop offset="0.5725" stop-color="#BD80E1"/>
<stop offset="1" stop-color="#9857BD"/>
</linearGradient>
<linearGradient id="paint1_linear" x1="31.8002" y1="52.568" x2="50.8618" y2="52.568" gradientUnits="userSpaceOnUse">
<stop stop-color="#FDB4BA"/>
<stop offset="0.5725" stop-color="#BD80E1"/>
<stop offset="1" stop-color="#9857BD"/>
</linearGradient>
<linearGradient id="paint2_linear" x1="29.0615" y1="45.8311" x2="41.6232" y2="45.8311" gradientUnits="userSpaceOnUse">
<stop stop-color="#F9F3F1"/>
<stop offset="0.5725" stop-color="#EFE2DD"/>
<stop offset="1" stop-color="#CDBFBA"/>
</linearGradient>
<linearGradient id="paint3_linear" x1="45.251" y1="10.2195" x2="59.1129" y2="10.2195" gradientUnits="userSpaceOnUse">
<stop stop-color="#FFE177"/>
<stop offset="0.5725" stop-color="#FEB137"/>
<stop offset="1" stop-color="#FE646F"/>
</linearGradient>
<linearGradient id="paint4_linear" x1="39.5139" y1="10.5296" x2="58.5755" y2="10.5296" gradientUnits="userSpaceOnUse">
<stop stop-color="#FFE177"/>
<stop offset="0.5725" stop-color="#FEB137"/>
<stop offset="1" stop-color="#FE646F"/>
</linearGradient>
<linearGradient id="paint5_linear" x1="36.0462" y1="17.4788" x2="53.0461" y2="17.4788" gradientUnits="userSpaceOnUse">
<stop stop-color="#F9F3F1"/>
<stop offset="0.5725" stop-color="#EFE2DD"/>
<stop offset="1" stop-color="#CDBFBA"/>
</linearGradient>
<linearGradient id="paint6_linear" x1="21.7215" y1="40.9603" x2="40.6126" y2="40.9603" gradientUnits="userSpaceOnUse">
<stop stop-color="#F9F3F1"/>
<stop offset="0.5725" stop-color="#EFE2DD"/>
<stop offset="1" stop-color="#CDBFBA"/>
</linearGradient>
<linearGradient id="paint7_linear" x1="30.9333" y1="21.465" x2="44.6106" y2="21.465" gradientUnits="userSpaceOnUse">
<stop stop-color="#F9F3F1"/>
<stop offset="0.5725" stop-color="#EFE2DD"/>
<stop offset="1" stop-color="#CDBFBA"/>
</linearGradient>
<linearGradient id="paint8_linear" x1="14.3085" y1="29.5088" x2="50.2347" y2="29.5088" gradientUnits="userSpaceOnUse">
<stop stop-color="#FE646F"/>
<stop offset="0.5725" stop-color="#FB2B3A"/>
<stop offset="1" stop-color="#C41926"/>
</linearGradient>
<linearGradient id="paint9_linear" x1="12.0548" y1="21.0863" x2="29.0023" y2="21.0863" gradientUnits="userSpaceOnUse">
<stop stop-color="#FE646F"/>
<stop offset="0.5725" stop-color="#FB2B3A"/>
<stop offset="1" stop-color="#C41926"/>
</linearGradient>
<linearGradient id="paint10_linear" x1="12.055" y1="35.6673" x2="24.8718" y2="35.6673" gradientUnits="userSpaceOnUse">
<stop stop-color="#FE646F"/>
<stop offset="0.5725" stop-color="#FB2B3A"/>
<stop offset="1" stop-color="#C41926"/>
</linearGradient>
<linearGradient id="paint11_linear" x1="9.37866" y1="29.5088" x2="44.3233" y2="29.5088" gradientUnits="userSpaceOnUse">
<stop stop-color="#FE646F"/>
<stop offset="0.5725" stop-color="#FB2B3A"/>
<stop offset="1" stop-color="#C41926"/>
</linearGradient>
<linearGradient id="paint12_linear" x1="9.022" y1="13.0846" x2="21.5835" y2="13.0846" gradientUnits="userSpaceOnUse">
<stop stop-color="#F9F3F1"/>
<stop offset="0.5725" stop-color="#EFE2DD"/>
<stop offset="1" stop-color="#CDBFBA"/>
</linearGradient>
<linearGradient id="paint13_linear" x1="4.26463" y1="9.92909" x2="19.2303" y2="9.92909" gradientUnits="userSpaceOnUse">
<stop stop-color="#F9F3F1"/>
<stop offset="0.5725" stop-color="#EFE2DD"/>
<stop offset="1" stop-color="#CDBFBA"/>
</linearGradient>
<linearGradient id="paint14_linear" x1="4.96591" y1="6.75971" x2="18.8278" y2="6.75971" gradientUnits="userSpaceOnUse">
<stop stop-color="#7ACAA6"/>
<stop offset="0.5725" stop-color="#09A76D"/>
<stop offset="1" stop-color="#026841"/>
</linearGradient>
<linearGradient id="paint15_linear" x1="-0.77113" y1="7.06982" x2="18.2905" y2="7.06982" gradientUnits="userSpaceOnUse">
<stop stop-color="#7ACAA6"/>
<stop offset="0.5725" stop-color="#09A76D"/>
<stop offset="1" stop-color="#026841"/>
</linearGradient>
<linearGradient id="paint16_linear" x1="7.27846" y1="37.5032" x2="22.9285" y2="37.5032" gradientUnits="userSpaceOnUse">
<stop stop-color="#F9F3F1"/>
<stop offset="0.5725" stop-color="#EFE2DD"/>
<stop offset="1" stop-color="#CDBFBA"/>
</linearGradient>
<linearGradient id="paint17_linear" x1="0.227487" y1="41.1042" x2="14.4692" y2="41.1042" gradientUnits="userSpaceOnUse">
<stop stop-color="#F9F3F1"/>
<stop offset="0.5725" stop-color="#EFE2DD"/>
<stop offset="1" stop-color="#CDBFBA"/>
</linearGradient>
<linearGradient id="paint18_linear" x1="0.537922" y1="44.424" x2="14.3998" y2="44.424" gradientUnits="userSpaceOnUse">
<stop stop-color="#6BD9E7"/>
<stop offset="0.5725" stop-color="#26A6FE"/>
<stop offset="1" stop-color="#0172FB"/>
</linearGradient>
<linearGradient id="paint19_linear" x1="-5.19922" y1="44.7341" x2="13.8624" y2="44.7341" gradientUnits="userSpaceOnUse">
<stop stop-color="#6BD9E7"/>
<stop offset="0.5725" stop-color="#26A6FE"/>
<stop offset="1" stop-color="#0172FB"/>
</linearGradient>
<clipPath id="clip0">
<rect width="58" height="59.0175" fill="white"/>
</clipPath>
</defs>
</svg>
