<svg width="55" height="55" viewBox="0 0 55 55" fill="none" xmlns="http://www.w3.org/2000/svg">
<path d="M27.5 55C42.6878 55 55 42.6878 55 27.5C55 12.3122 42.6878 0 27.5 0C12.3122 0 0 12.3122 0 27.5C0 42.6878 12.3122 55 27.5 55Z" fill="#FB7956"/>
<path d="M38.9381 42.1842H17.7276V35.0246L31.3496 24.7118C33.0769 23.4041 32.6607 21.5806 32.492 21.0528C32.3295 20.5445 31.6377 18.8807 29.5588 18.82C29.5125 18.8188 29.4309 18.818 29.3983 18.8178H26.9896C23.4416 18.8178 23.166 22.7057 23.166 23.8973H16.8821C16.8821 17.2067 21.0385 12.5339 26.9896 12.5339L29.4338 12.534C29.4338 12.534 29.6392 12.5359 29.7415 12.5388C33.8048 12.6575 37.2336 15.2484 38.4776 19.1393C39.7374 23.0804 38.4284 27.2342 35.1426 29.7218L26.9816 35.9003H38.9382V42.1842H38.9381Z" fill="#F8FFFB"/>
</svg>
