<svg width="55" height="55" viewBox="0 0 55 55" fill="none" xmlns="http://www.w3.org/2000/svg">
<path d="M27.5 55C42.6878 55 55 42.6878 55 27.5C55 12.3122 42.6878 0 27.5 0C12.3122 0 0 12.3122 0 27.5C0 42.6878 12.3122 55 27.5 55Z" fill="#FFDA6E"/>
<path d="M35.128 15.5594C33.4047 13.6388 30.5263 12.4922 27.4284 12.4922C26.8006 12.4922 26.1709 12.5499 25.5569 12.6636L25.3677 12.6985C23.4826 13.0468 21.775 13.9133 20.429 15.2041C19.1101 16.4697 18.2291 18.0593 17.8809 19.801L17.7739 20.3365L24.1383 20.818L24.2678 20.4835C24.6367 19.5307 25.5259 18.8167 26.5884 18.6202L26.7776 18.5853C27.9779 18.3635 29.2106 18.7684 29.9952 19.6428C31.0356 20.8018 30.9317 22.6638 29.7682 23.7089C29.2047 24.2153 26.4306 24.7999 25.5079 24.7615L25.0037 24.7399V29.6725L25.5079 29.6509C26.4367 29.6119 29.2049 30.1973 29.7683 30.7035C30.9317 31.7486 31.0356 33.6106 29.9951 34.7697C29.2106 35.644 27.9778 36.049 26.7775 35.8271L26.5885 35.7922C25.5259 35.5957 24.6367 34.8817 24.2678 33.9289L24.1383 33.5944L17.7739 34.0759L17.8809 34.6114C18.229 36.3531 19.11 37.9427 20.4291 39.2085C21.7749 40.4992 23.4826 41.3656 25.3677 41.7139L25.5566 41.7488C26.1709 41.8625 26.8006 41.9202 27.4284 41.9202C30.5263 41.9202 33.4047 40.7736 35.1279 38.8531C38.0318 35.6173 37.8949 30.5867 34.8801 27.2062C37.8949 23.8257 38.0319 18.7951 35.128 15.5594Z" fill="#F8FFFB"/>
</svg>
