<svg width="100" height="100" viewBox="0 0 100 100" fill="none" xmlns="http://www.w3.org/2000/svg">
<g clip-path="url(#clip0)">
<path d="M87.95 99.9999C90.3586 99.9999 91.8228 97.3192 90.4955 95.3092C88.5392 92.3466 85.181 90.3921 81.3647 90.3921C80.3849 90.3921 79.4361 90.5229 78.5326 90.7645C76.0665 86.2215 71.2545 83.1372 65.7222 83.1372C65.1865 83.1372 64.658 83.1682 64.1373 83.2245V78.1327H35.8627V84.5607C30.659 84.5831 26.1327 87.4194 23.7753 91.6745C22.2427 90.857 20.4935 90.3921 18.6351 90.3921C14.819 90.3921 11.4608 92.3466 9.50431 95.3092C8.17725 97.3192 9.64157 99.9999 12.05 99.9999H87.95Z" fill="url(#paint0_linear)"/>
<path d="M65.7222 83.1372C65.1797 83.1372 64.6446 83.1688 64.1177 83.2274V79.6568V78.1327H35.8628V84.5607H59.7877C64.7181 84.5607 69.2703 87.4039 71.2444 91.9217C71.3026 92.0548 71.3585 92.1892 71.4126 92.3248C71.4771 92.4872 71.5389 92.6509 71.5977 92.816C71.9355 93.7644 73.1275 94.0666 73.8599 93.3756C75.1581 92.1503 76.7561 91.2395 78.5328 90.7644C76.0665 86.2215 71.2546 83.1372 65.7222 83.1372Z" fill="url(#paint1_linear)"/>
<path d="M21.4131 97.1886C21.7965 97.1886 22.118 96.9041 22.1692 96.5241C22.4033 94.7849 22.959 93.1477 23.7753 91.6743C22.2427 90.8569 20.4935 90.392 18.6351 90.392C17.2518 90.392 15.9298 90.6514 14.7116 91.1198C17.3731 92.1431 19.5335 94.1761 20.7229 96.7496C20.8472 97.0183 21.1174 97.1886 21.4131 97.1886Z" fill="url(#paint2_linear)"/>
<path d="M25.0761 48.3526L21.7573 51.6714C17.4324 55.9963 15.0028 61.862 15.0028 67.9783C15.0028 70.1016 16.7242 71.823 18.8475 71.823H34.2824V45.3524H32.3191C29.6024 45.3526 26.9971 46.4318 25.0761 48.3526Z" fill="url(#paint3_linear)"/>
<path d="M74.9239 48.3526L78.2428 51.6714C82.5677 55.9963 84.9973 61.862 84.9973 67.9783C84.9973 70.1016 83.2759 71.823 81.1526 71.823H65.7177V45.3524H67.681C70.3977 45.3526 73.0029 46.4318 74.9239 48.3526Z" fill="url(#paint4_linear)"/>
<path d="M70.9767 35.0458V68.1691H29.0234V35.0458C29.0234 24.246 33.3138 13.8888 40.9509 6.25267L45.2271 1.97679C47.8634 -0.659093 52.1371 -0.659093 54.7734 1.97679L59.0497 6.25267C66.6863 13.8889 70.9767 24.2462 70.9767 35.0458Z" fill="url(#paint5_linear)"/>
<path d="M59.0495 6.25261L54.7732 1.97672C52.4042 -0.391905 48.7136 -0.630729 46.0766 1.2577C46.374 1.47084 46.6589 1.70947 46.9262 1.97672L51.2025 6.25261C58.8393 13.8889 63.1299 24.2461 63.1299 35.0457V68.1691H70.977V35.0457C70.9768 24.2461 66.6864 13.8889 59.0495 6.25261Z" fill="url(#paint6_linear)"/>
<path d="M45.227 1.97679L40.9507 6.25267C36.3179 10.885 32.9195 16.5195 30.9605 22.6458H69.0397C67.0807 16.5195 63.6823 10.8848 59.0495 6.25267L54.7732 1.97679C52.137 -0.659093 47.8632 -0.659093 45.227 1.97679Z" fill="url(#paint7_linear)"/>
<path d="M50 60.1576C58.6033 60.1576 65.5777 53.1833 65.5777 44.58C65.5777 35.9767 58.6033 29.0023 50 29.0023C41.3967 29.0023 34.4224 35.9767 34.4224 44.58C34.4224 53.1833 41.3967 60.1576 50 60.1576Z" fill="url(#paint8_linear)"/>
<path d="M50.0001 29.0021C48.6448 29.0021 47.3301 29.1758 46.0766 29.5011C52.7805 31.2405 57.7307 37.3317 57.7307 44.5797C57.7307 51.8278 52.7803 57.9189 46.0766 59.6583C47.3301 59.9836 48.6448 60.1574 50.0001 60.1574C58.6034 60.1574 65.5778 53.183 65.5778 44.5797C65.5778 35.9766 58.6034 29.0021 50.0001 29.0021Z" fill="url(#paint9_linear)"/>
<path d="M50.0001 53.5342C54.9454 53.5342 58.9544 49.5253 58.9544 44.5799C58.9544 39.6346 54.9454 35.6256 50.0001 35.6256C45.0547 35.6256 41.0458 39.6346 41.0458 44.5799C41.0458 49.5253 45.0547 53.5342 50.0001 53.5342Z" fill="url(#paint10_linear)"/>
<path d="M50.0001 35.6256C49.1495 35.6256 48.3276 35.7468 47.5482 35.9684C51.3009 37.035 54.0503 40.4852 54.0503 44.5799C54.0503 48.6746 51.3009 52.1248 47.5482 53.1915C48.3278 53.4131 49.1495 53.5342 50.0001 53.5342C54.9454 53.5342 58.9544 49.5252 58.9544 44.5799C58.9544 39.6346 54.9454 35.6256 50.0001 35.6256Z" fill="url(#paint11_linear)"/>
<path d="M29.0234 65.9613V74.9521C29.0234 77.5501 31.1295 79.6562 33.7275 79.6562H66.2728C68.8709 79.6562 70.9769 77.5501 70.9769 74.9521V65.9613H29.0234Z" fill="url(#paint12_linear)"/>
<path d="M63.1296 79.6561H66.2725C68.8706 79.6561 70.9767 77.55 70.9767 74.952V65.9612H63.1296V79.6561Z" fill="url(#paint13_linear)"/>
<path d="M59.0495 6.2526L54.7732 1.97672C52.4042 -0.391905 48.7136 -0.630729 46.0766 1.2577C46.374 1.47084 46.6589 1.70947 46.9262 1.97672L51.2025 6.2526C55.8352 10.885 59.2336 16.5195 61.1927 22.6457H69.0397C67.0807 16.5195 63.6823 10.885 59.0495 6.2526Z" fill="url(#paint14_linear)"/>
</g>
<defs>
<linearGradient id="paint0_linear" x1="43.2275" y1="89.0664" x2="85.9898" y2="89.0664" gradientUnits="userSpaceOnUse">
<stop stop-color="#F2FBFF"/>
<stop offset="0.593" stop-color="#FAF7F7"/>
<stop offset="1" stop-color="#F3EAE6"/>
</linearGradient>
<linearGradient id="paint1_linear" x1="53.6734" y1="85.9425" x2="75.9269" y2="85.9425" gradientUnits="userSpaceOnUse">
<stop stop-color="#F3EAE6"/>
<stop offset="1" stop-color="#CDBFBA"/>
</linearGradient>
<linearGradient id="paint2_linear" x1="8.36607" y1="93.7904" x2="22.0572" y2="93.7904" gradientUnits="userSpaceOnUse">
<stop stop-color="#F2FBFF"/>
<stop offset="0.593" stop-color="#FAF7F7"/>
<stop offset="1" stop-color="#F3EAE6"/>
</linearGradient>
<linearGradient id="paint3_linear" x1="15.0634" y1="58.5877" x2="34.0019" y2="58.5877" gradientUnits="userSpaceOnUse">
<stop stop-color="#FE8A6B"/>
<stop offset="0.593" stop-color="#FB6138"/>
<stop offset="1" stop-color="#EC5D36"/>
</linearGradient>
<linearGradient id="paint4_linear" x1="60.3922" y1="58.5879" x2="85.322" y2="58.5879" gradientUnits="userSpaceOnUse">
<stop stop-color="#EC5D36"/>
<stop offset="0.7043" stop-color="#EA4E23"/>
<stop offset="1" stop-color="#DB1221"/>
</linearGradient>
<linearGradient id="paint5_linear" x1="29.1552" y1="34.0846" x2="70.3665" y2="34.0846" gradientUnits="userSpaceOnUse">
<stop stop-color="#F2FBFF"/>
<stop offset="0.593" stop-color="#FAF7F7"/>
<stop offset="1" stop-color="#F3EAE6"/>
</linearGradient>
<linearGradient id="paint6_linear" x1="28.6276" y1="34.085" x2="79.7515" y2="34.085" gradientUnits="userSpaceOnUse">
<stop stop-color="#F3EAE6"/>
<stop offset="1" stop-color="#CDBFBA"/>
</linearGradient>
<linearGradient id="paint7_linear" x1="31.0801" y1="11.3228" x2="68.4857" y2="11.3228" gradientUnits="userSpaceOnUse">
<stop stop-color="#FE8A6B"/>
<stop offset="0.593" stop-color="#FB6138"/>
<stop offset="1" stop-color="#EC5D36"/>
</linearGradient>
<linearGradient id="paint8_linear" x1="34.5202" y1="44.58" x2="65.1245" y2="44.58" gradientUnits="userSpaceOnUse">
<stop stop-color="#FFF9DF"/>
<stop offset="0.593" stop-color="#FFE177"/>
<stop offset="1" stop-color="#FEB137"/>
</linearGradient>
<linearGradient id="paint9_linear" x1="45.0982" y1="44.5799" x2="65.5054" y2="44.5799" gradientUnits="userSpaceOnUse">
<stop stop-color="#FFE177"/>
<stop offset="1" stop-color="#FEB137"/>
</linearGradient>
<linearGradient id="paint10_linear" x1="41.102" y1="44.5799" x2="58.6938" y2="44.5799" gradientUnits="userSpaceOnUse">
<stop stop-color="#69D2E7"/>
<stop offset="0.6075" stop-color="#009EFD"/>
<stop offset="1" stop-color="#0296EF"/>
</linearGradient>
<linearGradient id="paint11_linear" x1="47.5839" y1="44.5799" x2="58.7886" y2="44.5799" gradientUnits="userSpaceOnUse">
<stop stop-color="#01BFFA"/>
<stop offset="1" stop-color="#097CC1"/>
</linearGradient>
<linearGradient id="paint12_linear" x1="29.1552" y1="72.8088" x2="70.3666" y2="72.8088" gradientUnits="userSpaceOnUse">
<stop stop-color="#FE8A6B"/>
<stop offset="0.593" stop-color="#FB6138"/>
<stop offset="1" stop-color="#EC5D36"/>
</linearGradient>
<linearGradient id="paint13_linear" x1="60.9621" y1="72.8087" x2="71.1088" y2="72.8087" gradientUnits="userSpaceOnUse">
<stop stop-color="#EC5D36"/>
<stop offset="0.7043" stop-color="#EA4E23"/>
<stop offset="1" stop-color="#DB1221"/>
</linearGradient>
<linearGradient id="paint14_linear" x1="39.7336" y1="11.3233" x2="69.4265" y2="11.3233" gradientUnits="userSpaceOnUse">
<stop stop-color="#EC5D36"/>
<stop offset="0.7043" stop-color="#EA4E23"/>
<stop offset="1" stop-color="#DB1221"/>
</linearGradient>
<clipPath id="clip0">
<rect width="100" height="100" fill="white"/>
</clipPath>
</defs>
</svg>
