<svg width="100" height="100" viewBox="0 0 100 100" fill="none" xmlns="http://www.w3.org/2000/svg">
<circle cx="50" cy="50" r="50" fill="url(#paint0_linear)"/>
<g opacity="0.8" clip-path="url(#clip0)">
<path d="M72.0108 57.7359C69.3544 55.0796 65.4392 54.126 61.8791 55.2218L58.3097 51.6522L73.9062 36.0559C74.6115 35.3505 75 34.4126 75 33.415C75 32.4175 74.6115 31.4795 73.9062 30.7742L69.2258 26.0938C68.5204 25.3884 67.5825 25 66.585 25C65.5873 25 64.6495 25.3884 63.9441 26.0938L48.3477 41.6903L44.7782 38.1208C45.874 34.5608 44.9204 30.6455 42.2641 27.9891C40.794 26.519 38.9389 25.5495 36.8991 25.1854C34.9069 24.8296 32.8785 25.0714 31.0334 25.8844C30.7385 26.0144 30.5267 26.2814 30.4673 26.5982C30.408 26.9149 30.5087 27.2406 30.7366 27.4686L35.3957 32.1275L32.1019 35.4213L27.4428 30.7624C27.2148 30.5345 26.889 30.4341 26.5725 30.4931C26.2557 30.5523 25.9886 30.7642 25.8587 31.0592C25.0457 32.9044 24.804 34.9327 25.1596 36.9249C25.5237 38.9646 26.4933 40.8198 27.9634 42.2899C30.6197 44.9462 34.5353 45.8999 38.0951 44.8041L41.6646 48.3735C41.6646 48.3735 32.7056 57.3325 29.7192 60.3189C29.5413 60.4969 29.4828 60.7022 29.4822 60.7042L25.2292 73.5367C25.113 73.8872 25.2045 74.2733 25.4656 74.5344C25.6518 74.7204 25.9013 74.8204 26.1563 74.8204C26.259 74.8204 26.3626 74.8042 26.4633 74.7708L39.2834 70.522C39.485 70.4645 39.6811 70.2808 39.6811 70.2808L51.6264 58.3354L55.1959 61.905C54.1001 65.4649 55.0537 69.3804 57.7101 72.0368C59.1801 73.5068 61.0353 74.4763 63.075 74.8405C63.6721 74.9472 64.2722 75.0001 64.8697 75.0001C66.2663 75.0001 67.6484 74.7108 68.9406 74.1415C69.2355 74.0115 69.4474 73.7444 69.5067 73.4276C69.566 73.1109 69.4653 72.7853 69.2374 72.5573L64.5783 67.8983L67.8722 64.6045L72.5312 69.2635C72.7591 69.4914 73.0848 69.5926 73.4015 69.5328C73.7183 69.4735 73.9854 69.2617 74.1152 68.9667C74.9282 67.1215 75.17 65.0932 74.8144 63.101C74.4504 61.0611 73.4809 59.2061 72.0108 57.7359ZM65.3252 27.4749C65.6617 27.1384 66.1091 26.953 66.585 26.953C67.0608 26.953 67.5082 27.1383 67.8447 27.4749L72.5251 32.1553C72.8615 32.4917 73.0469 32.9391 73.0469 33.415C73.0469 33.8909 72.8615 34.3384 72.525 34.6748L69.3563 37.8435L62.1565 30.6436L65.3252 27.4749ZM39.0455 42.9925C38.859 42.806 38.6093 42.7064 38.3548 42.7064C38.2388 42.7064 38.1216 42.7271 38.0092 42.7697C35.0113 43.9049 31.6102 43.1746 29.3442 40.9087C27.3001 38.8646 26.5134 35.981 27.1704 33.2521L31.4111 37.493C31.7925 37.8742 32.4108 37.8742 32.7922 37.493L37.4671 32.8181C37.8484 32.4367 37.8484 31.8184 37.4671 31.437L33.2264 27.1963C35.955 26.5391 38.8387 27.326 40.8829 29.3701C43.1488 31.636 43.8793 35.0372 42.7439 38.035C42.6079 38.3942 42.695 38.7998 42.9666 39.0714L46.9665 43.0713L43.0454 46.9924L39.0455 42.9925ZM27.6948 72.3052L29.1074 68.0427L31.9571 70.8924L27.6948 72.3052ZM34.0318 70.205L29.795 65.9682L30.8386 62.8193L37.1806 69.1613L34.0318 70.205ZM38.9906 68.2092L36.0813 65.2998L45.6402 55.7408C46.0216 55.3595 46.0216 54.7411 45.6402 54.3598C45.259 53.9785 44.6405 53.9785 44.2592 54.3598L34.7002 63.9188L31.7907 61.0094L60.7755 32.0246L60.8543 32.1034L63.6848 34.934L50.5021 48.1167C50.1208 48.498 50.1208 49.1164 50.5021 49.4978C50.6928 49.6884 50.9428 49.7838 51.1927 49.7838C51.4426 49.7838 51.6926 49.6884 51.8832 49.4978L65.0658 36.315L67.9752 39.2245L38.9906 68.2092ZM72.8036 66.7735L68.5629 62.5328C68.3798 62.3497 68.1313 62.2468 67.8724 62.2468C67.6134 62.2468 67.3649 62.3497 67.1818 62.5328L62.507 67.2077C62.1257 67.5891 62.1257 68.2074 62.507 68.5888L66.7478 72.8296C64.0187 73.4865 61.1353 72.6999 59.0912 70.6558C56.8253 68.3898 56.0948 64.9887 57.2302 61.9908C57.3662 61.6315 57.2791 61.226 57.0074 60.9544L53.0075 56.9545L56.9286 53.0334L60.9286 57.0334C61.2002 57.305 61.6057 57.3923 61.965 57.2561C64.9626 56.1207 68.364 56.8512 70.6299 59.1171C72.674 61.1612 73.4607 64.0448 72.8036 66.7735Z" fill="white"/>
<path d="M48.0839 52.8927C47.6756 52.8927 47.3029 52.6281 47.1654 52.2447C47.0299 51.8665 47.1459 51.4321 47.4521 51.1717C47.7721 50.8997 48.2424 50.8677 48.5991 51.0868C48.9415 51.2972 49.1185 51.714 49.0408 52.1066C48.9517 52.5573 48.5435 52.8927 48.0839 52.8927Z" fill="white"/>
</g>
<defs>
<linearGradient id="paint0_linear" x1="97.2321" y1="7.51025e-06" x2="-21.0792" y2="47.531" gradientUnits="userSpaceOnUse">
<stop stop-color="#917AB8"/>
<stop offset="1" stop-color="#7760A2"/>
</linearGradient>
<clipPath id="clip0">
<rect width="50" height="50" fill="white" transform="translate(25 25)"/>
</clipPath>
</defs>
</svg>
