<svg width="60" height="60" viewBox="0 0 60 60" fill="none" xmlns="http://www.w3.org/2000/svg">
<circle cx="30" cy="30" r="30" fill="url(#paint0_linear)"/>
<g clip-path="url(#clip0)">
<path d="M18.2886 31.1808H29.8171C30.2225 32.8495 31.728 34.0919 33.5231 34.0919C35.3182 34.0919 36.8185 32.8495 37.2291 31.1808H42.2721C42.7722 31.1808 43.1776 30.7755 43.1776 30.2754C43.1776 29.7753 42.7722 29.3752 42.2721 29.3752H37.2291C36.8237 27.7065 35.3182 26.4641 33.5231 26.4641C31.728 26.4641 30.2277 27.7065 29.8171 29.3752H18.2886C17.7885 29.3752 17.3832 29.7805 17.3832 30.2754C17.3884 30.7807 17.7938 31.1808 18.2886 31.1808ZM33.5231 28.275C34.6286 28.275 35.5287 29.1752 35.5287 30.2806C35.5287 31.3861 34.6286 32.2863 33.5231 32.2863C32.4176 32.2863 31.5122 31.3861 31.5122 30.2806C31.5122 29.1752 32.4124 28.275 33.5231 28.275Z" fill="white"/>
<path d="M18.2886 39.9352H23.8212C24.2266 41.6039 25.7321 42.8463 27.5272 42.8463C29.3223 42.8463 30.8226 41.6039 31.2332 39.9352H42.2721C42.7722 39.9352 43.1776 39.5299 43.1776 39.035C43.1776 38.5349 42.7722 38.1296 42.2721 38.1296H31.2332C30.8278 36.4608 29.3223 35.2185 27.5272 35.2185C25.7321 35.2185 24.2318 36.4608 23.8212 38.1296H18.2886C17.7885 38.1296 17.3832 38.5349 17.3832 39.035C17.3884 39.5299 17.7938 39.9352 18.2886 39.9352ZM27.5272 37.0241C28.6327 37.0241 29.5329 37.9243 29.5329 39.0298C29.5329 40.1352 28.6327 41.0354 27.5272 41.0354C26.4375 41.0354 25.5479 40.1616 25.5216 39.0719C25.5216 39.0561 25.5216 39.0403 25.5216 39.0245C25.5216 39.0087 25.5216 38.9929 25.5216 38.9771C25.5479 37.898 26.4375 37.0241 27.5272 37.0241Z" fill="white"/>
<path d="M18.2886 22.4318H23.8212C24.2266 24.1005 25.7321 25.3429 27.5272 25.3429C29.3223 25.3429 30.8226 24.1005 31.2332 22.4318H42.2721C42.7722 22.4318 43.1776 22.0264 43.1776 21.5263C43.1776 21.0262 42.7722 20.6262 42.2721 20.6262H31.2332C30.8278 18.9574 29.3223 17.7151 27.5272 17.7151C25.7321 17.7151 24.2318 18.9574 23.8212 20.6262H18.2886C17.7885 20.6262 17.3832 21.0315 17.3832 21.5263C17.3884 22.0264 17.7938 22.4318 18.2886 22.4318ZM27.5272 19.5207C28.6327 19.5207 29.5329 20.4209 29.5329 21.5263C29.5329 22.6318 28.6327 23.532 27.5272 23.532C26.4375 23.532 25.5479 22.6581 25.5216 21.5685C25.5216 21.5527 25.5216 21.5369 25.5216 21.5211C25.5216 21.5053 25.5216 21.4895 25.5216 21.4737C25.5479 20.3998 26.4375 19.5207 27.5272 19.5207Z" fill="white"/>
</g>
<defs>
<linearGradient id="paint0_linear" x1="30" y1="0" x2="30" y2="60" gradientUnits="userSpaceOnUse">
<stop stop-color="#FFE177"/>
<stop offset="1" stop-color="#FEB137"/>
</linearGradient>
<clipPath id="clip0">
<rect width="25.7944" height="25.7944" fill="white" transform="translate(17.3832 17.3833)"/>
</clipPath>
</defs>
</svg>
