<svg width="100" height="100" viewBox="0 0 100 100" fill="none" xmlns="http://www.w3.org/2000/svg">
<circle cx="50" cy="50" r="50" fill="url(#paint0_linear)"/>
<g opacity="0.8" clip-path="url(#clip0)">
<path d="M74.8515 52.995C74.7275 52.747 74.4174 52.623 74.1694 52.561C72.7433 52.561 60.4665 52.065 60.4665 37.804C60.4665 37.37 60.0944 36.9979 59.6604 36.9979C59.2264 36.9979 58.8544 37.37 58.8544 37.804C58.8544 52.065 46.5775 52.561 45.2134 52.561C45.0274 52.561 44.8414 52.623 44.7174 52.747C44.5934 52.809 44.5314 52.933 44.4693 52.995C44.3453 53.2431 44.3453 53.5531 44.4693 53.8011C44.5934 54.0491 44.9034 54.2351 45.2134 54.2351C45.2134 54.2351 45.2134 54.2351 45.2754 54.2351C46.7015 54.2351 58.9164 54.7312 58.9164 68.9922C58.9164 69.4262 59.2884 69.7982 59.7224 69.7982C60.1564 69.7982 60.5285 69.4262 60.5285 68.9922C60.5285 54.7932 72.7433 54.2351 74.1694 54.2351C74.4795 54.2351 74.7275 54.0491 74.9135 53.8011C75.0375 53.5531 75.0375 53.2431 74.8515 52.995ZM59.6604 62.9157C57.8623 57.0253 53.46 54.4832 49.9877 53.3671C53.46 52.251 57.8623 49.7088 59.6604 43.8184C61.4585 49.7088 65.8608 52.251 69.3331 53.3671C65.8608 54.4832 61.4585 57.0253 59.6604 62.9157Z" fill="white"/>
<path d="M49.4297 36.874C49.8637 36.874 50.2357 36.502 50.2357 36.0059C50.2357 35.5719 49.8637 35.1999 49.4297 35.1999C48.6856 35.1999 41.9892 34.9519 41.9892 27.1393C41.9892 26.7053 41.6171 26.3333 41.1831 26.3333C40.7491 26.3333 40.3771 26.7053 40.3771 27.1393C40.3771 34.9519 33.6806 35.1999 32.9365 35.1999C32.8745 35.1999 32.8745 35.1999 32.8745 35.1999C32.4405 35.2619 32.1305 35.5719 32.1305 36.0059C32.1305 36.44 32.5025 36.812 32.9365 36.812C33.7426 36.812 40.3771 37.06 40.3771 44.8725C40.3771 45.3066 40.7491 45.6786 41.1831 45.6786C41.5551 45.7406 41.9272 45.3686 41.9272 44.9346C41.9272 37.122 48.6236 36.874 49.3677 36.874H49.4297ZM41.1211 40.4082C40.129 38.0521 38.3309 36.75 36.6568 36.0059C38.4549 35.2619 40.129 33.8358 41.1211 31.6036C42.1132 33.9598 43.9113 35.2619 45.5854 36.0059C43.7873 36.75 42.1132 38.1761 41.1211 40.4082Z" fill="white"/>
<path d="M42.2992 63.1639C41.5552 63.1639 34.8587 62.9158 34.8587 55.1033C34.8587 54.6693 34.4867 54.2972 34.0526 54.2972C33.6186 54.2972 33.2466 54.6693 33.2466 55.1033C33.2466 62.9158 26.5501 63.1639 25.8061 63.1639C25.7441 63.1639 25.7441 63.1639 25.7441 63.1639C25.31 63.2259 25 63.5359 25 63.9699C25 64.4039 25.372 64.776 25.8061 64.776C26.6121 64.776 33.2466 65.024 33.2466 72.8365C33.2466 73.2706 33.6186 73.6426 34.0526 73.6426C34.4247 73.7666 34.7967 73.3946 34.7967 72.8985C34.7967 65.086 41.4932 64.838 42.2372 64.838H42.2992C42.7333 64.838 43.1053 64.4659 43.1053 63.9699C43.1053 63.5359 42.7333 63.1639 42.2992 63.1639ZM33.9906 68.4342C32.9366 66.0781 31.2004 64.776 29.5263 64.0319C31.3244 63.2879 32.9986 61.8618 33.9906 59.6296C34.9827 61.9858 36.7808 63.2879 38.455 64.0319C36.6568 64.776 34.9827 66.2021 33.9906 68.4342Z" fill="white"/>
</g>
<defs>
<linearGradient id="paint0_linear" x1="97.2321" y1="7.51025e-06" x2="-21.0792" y2="47.531" gradientUnits="userSpaceOnUse">
<stop stop-color="#917AB8"/>
<stop offset="1" stop-color="#7760A2"/>
</linearGradient>
<clipPath id="clip0">
<rect width="50" height="50" fill="white" transform="translate(25 25)"/>
</clipPath>
</defs>
</svg>
