<svg width="148" height="20" viewBox="0 0 148 20" fill="none" xmlns="http://www.w3.org/2000/svg">
<g clip-path="url(#clip0)">
<path d="M19.9713 7.70509C19.9024 7.4929 19.719 7.33833 19.4983 7.3063L13.2983 6.40528L10.5254 0.78705C10.4267 0.587012 10.2231 0.460449 10 0.460449C9.77701 0.460449 9.5733 0.587012 9.47459 0.78705L6.70162 6.40524L0.501674 7.3063C0.281011 7.33833 0.0975736 7.4929 0.0287066 7.70501C-0.0402386 7.91719 0.0172613 8.15005 0.176948 8.30567L4.66319 12.6789L3.60429 18.854C3.56659 19.0739 3.65698 19.296 3.83741 19.4271C4.01784 19.5582 4.25698 19.5755 4.45448 19.4717L9.99998 16.5561L15.5453 19.4716C15.6311 19.5167 15.7247 19.5389 15.8179 19.5389C15.9394 19.5389 16.0604 19.5012 16.1624 19.4271C16.3428 19.296 16.4332 19.0738 16.3955 18.854L15.3363 12.6789L19.823 8.30567C19.9827 8.15001 20.0402 7.91716 19.9713 7.70509Z" fill="#FED42D"/>
<path d="M19.9713 7.70508C19.9024 7.4929 19.719 7.33833 19.4983 7.3063L13.2982 6.40528L10.5254 0.78705C10.4267 0.587011 10.223 0.460449 10 0.460449V16.5562L15.5453 19.4717C15.6311 19.5167 15.7247 19.539 15.818 19.539C15.9394 19.539 16.0604 19.5013 16.1624 19.4271C16.3428 19.296 16.4332 19.0738 16.3955 18.854L15.3363 12.6789L19.823 8.30567C19.9827 8.15 20.0402 7.91715 19.9713 7.70508Z" fill="#FCBF29"/>
</g>
<g clip-path="url(#clip1)">
<path d="M51.9713 7.70509C51.9024 7.4929 51.719 7.33833 51.4983 7.3063L45.2983 6.40528L42.5254 0.78705C42.4267 0.587012 42.2231 0.460449 42 0.460449C41.777 0.460449 41.5733 0.587012 41.4746 0.78705L38.7016 6.40524L32.5017 7.3063C32.281 7.33833 32.0976 7.4929 32.0287 7.70501C31.9598 7.91719 32.0173 8.15005 32.1769 8.30567L36.6632 12.6789L35.6043 18.854C35.5666 19.0739 35.657 19.296 35.8374 19.4271C36.0178 19.5582 36.257 19.5755 36.4545 19.4717L42 16.5561L47.5453 19.4716C47.6311 19.5167 47.7247 19.5389 47.8179 19.5389C47.9394 19.5389 48.0604 19.5012 48.1624 19.4271C48.3428 19.296 48.4332 19.0738 48.3955 18.854L47.3363 12.6789L51.823 8.30567C51.9827 8.15001 52.0402 7.91716 51.9713 7.70509Z" fill="#FED42D"/>
<path d="M51.9713 7.70508C51.9024 7.4929 51.719 7.33833 51.4983 7.3063L45.2983 6.40528L42.5255 0.78705C42.4267 0.587011 42.2231 0.460449 42 0.460449V16.5562L47.5454 19.4717C47.6311 19.5167 47.7247 19.539 47.818 19.539C47.9395 19.539 48.0604 19.5013 48.1624 19.4271C48.3429 19.296 48.4333 19.0738 48.3956 18.854L47.3363 12.6789L51.823 8.30567C51.9827 8.15 52.0402 7.91715 51.9713 7.70508Z" fill="#FCBF29"/>
</g>
<g clip-path="url(#clip2)">
<path d="M83.9713 7.70509C83.9024 7.4929 83.719 7.33833 83.4983 7.3063L77.2983 6.40528L74.5254 0.78705C74.4267 0.587012 74.2231 0.460449 74 0.460449C73.777 0.460449 73.5733 0.587012 73.4746 0.78705L70.7016 6.40524L64.5017 7.3063C64.281 7.33833 64.0976 7.4929 64.0287 7.70501C63.9598 7.91719 64.0173 8.15005 64.1769 8.30567L68.6632 12.6789L67.6043 18.854C67.5666 19.0739 67.657 19.296 67.8374 19.4271C68.0178 19.5582 68.257 19.5755 68.4545 19.4717L74 16.5561L79.5453 19.4716C79.6311 19.5167 79.7247 19.5389 79.8179 19.5389C79.9394 19.5389 80.0604 19.5012 80.1624 19.4271C80.3428 19.296 80.4332 19.0738 80.3955 18.854L79.3363 12.6789L83.823 8.30567C83.9827 8.15001 84.0402 7.91716 83.9713 7.70509Z" fill="#FED42D"/>
<path d="M83.9713 7.70508C83.9024 7.4929 83.719 7.33833 83.4983 7.3063L77.2983 6.40528L74.5255 0.78705C74.4267 0.587011 74.2231 0.460449 74 0.460449V16.5562L79.5454 19.4717C79.6311 19.5167 79.7247 19.539 79.818 19.539C79.9395 19.539 80.0604 19.5013 80.1624 19.4271C80.3429 19.296 80.4333 19.0738 80.3956 18.854L79.3363 12.6789L83.823 8.30567C83.9827 8.15 84.0402 7.91715 83.9713 7.70508Z" fill="#FCBF29"/>
</g>
<g clip-path="url(#clip3)">
<path d="M115.971 7.70509C115.902 7.4929 115.719 7.33833 115.498 7.3063L109.298 6.40528L106.525 0.78705C106.427 0.587012 106.223 0.460449 106 0.460449C105.777 0.460449 105.573 0.587012 105.475 0.78705L102.702 6.40524L96.5017 7.3063C96.281 7.33833 96.0976 7.4929 96.0287 7.70501C95.9598 7.91719 96.0173 8.15005 96.1769 8.30567L100.663 12.6789L99.6043 18.854C99.5666 19.0739 99.657 19.296 99.8374 19.4271C100.018 19.5582 100.257 19.5755 100.454 19.4717L106 16.5561L111.545 19.4716C111.631 19.5167 111.725 19.5389 111.818 19.5389C111.939 19.5389 112.06 19.5012 112.162 19.4271C112.343 19.296 112.433 19.0738 112.396 18.854L111.336 12.6789L115.823 8.30567C115.983 8.15001 116.04 7.91716 115.971 7.70509Z" fill="#FED42D"/>
<path d="M115.971 7.70508C115.902 7.4929 115.719 7.33833 115.498 7.3063L109.298 6.40528L106.525 0.78705C106.427 0.587011 106.223 0.460449 106 0.460449V16.5562L111.545 19.4717C111.631 19.5167 111.725 19.539 111.818 19.539C111.939 19.539 112.06 19.5013 112.162 19.4271C112.343 19.296 112.433 19.0738 112.396 18.854L111.336 12.6789L115.823 8.30567C115.983 8.15 116.04 7.91715 115.971 7.70508Z" fill="#FCBF29"/>
</g>
<g clip-path="url(#clip4)">
<path d="M147.971 7.70509C147.902 7.4929 147.719 7.33833 147.498 7.3063L141.298 6.40528L138.525 0.78705C138.427 0.587012 138.223 0.460449 138 0.460449C137.777 0.460449 137.573 0.587012 137.475 0.78705L134.702 6.40524L128.502 7.3063C128.281 7.33833 128.098 7.4929 128.029 7.70501C127.96 7.91719 128.017 8.15005 128.177 8.30567L132.663 12.6789L131.604 18.854C131.567 19.0739 131.657 19.296 131.837 19.4271C132.018 19.5582 132.257 19.5755 132.454 19.4717L138 16.5561L143.545 19.4716C143.631 19.5167 143.725 19.5389 143.818 19.5389C143.939 19.5389 144.06 19.5012 144.162 19.4271C144.343 19.296 144.433 19.0738 144.396 18.854L143.336 12.6789L147.823 8.30567C147.983 8.15001 148.04 7.91716 147.971 7.70509Z" fill="#FED42D"/>
<path d="M147.971 7.70508C147.902 7.4929 147.719 7.33833 147.498 7.3063L141.298 6.40528L138.525 0.78705C138.427 0.587012 138.223 0.460449 138 0.460449V16.5562L143.545 19.4717C143.631 19.5167 143.725 19.539 143.818 19.539C143.939 19.539 144.06 19.5013 144.162 19.4271C144.343 19.296 144.433 19.0738 144.396 18.854L143.336 12.6789L147.823 8.30567C147.983 8.15 148.04 7.91715 147.971 7.70508Z" fill="#FCBF29"/>
</g>
<defs>
<clipPath id="clip0">
<rect width="20" height="20" fill="white"/>
</clipPath>
<clipPath id="clip1">
<rect width="20" height="20" fill="white" transform="translate(32)"/>
</clipPath>
<clipPath id="clip2">
<rect width="20" height="20" fill="white" transform="translate(64)"/>
</clipPath>
<clipPath id="clip3">
<rect width="20" height="20" fill="white" transform="translate(96)"/>
</clipPath>
<clipPath id="clip4">
<rect width="20" height="20" fill="white" transform="translate(128)"/>
</clipPath>
</defs>
</svg>
