<svg width="100" height="100" viewBox="0 0 100 100" fill="none" xmlns="http://www.w3.org/2000/svg">
<circle cx="50" cy="50" r="50" fill="url(#paint0_linear)"/>
<path opacity="0.8" d="M74.7778 33.3333H62.7407V29.6296C62.7376 27.0738 60.6669 25.0032 58.1111 25H41.4444C38.8887 25.0032 36.818 27.0738 36.8148 29.6296V33.3333H24.7778C23.2438 33.3333 22 34.5771 22 36.1111V56.722C22.0059 57.8966 22.746 58.9414 23.8519 59.3361V72.2222C23.8519 73.7562 25.0956 75 26.6296 75H72.9259C74.4599 75 75.7037 73.7562 75.7037 72.2222V59.337C76.8096 58.9419 77.5501 57.8966 77.5556 56.722V36.1111C77.5556 34.5771 76.3118 33.3333 74.7778 33.3333ZM38.6667 29.6296C38.6667 28.0956 39.9104 26.8519 41.4444 26.8519H58.1111C59.6451 26.8519 60.8889 28.0956 60.8889 29.6296V33.3333H59.037V29.6296C59.037 29.1183 58.6224 28.7037 58.1111 28.7037H41.4444C40.9331 28.7037 40.5185 29.1183 40.5185 29.6296V33.3333H38.6667V29.6296ZM57.1852 33.3333H42.3704V30.5556H57.1852V33.3333ZM73.8519 72.2222C73.8519 72.7336 73.4373 73.1481 72.9259 73.1481H26.6296C26.1183 73.1481 25.7037 72.7336 25.7037 72.2222V59.6544L46.0741 62.4638V64.8148C46.0741 66.3488 47.3178 67.5926 48.8519 67.5926H50.7037C52.2377 67.5926 53.4815 66.3488 53.4815 64.8148V62.4638L73.8519 59.6544V72.2222ZM51.6296 64.8148C51.6296 65.3262 51.215 65.7407 50.7037 65.7407H48.8519C48.3405 65.7407 47.9259 65.3262 47.9259 64.8148V59.2593C47.9259 58.7479 48.3405 58.3333 48.8519 58.3333H50.7037C51.215 58.3333 51.6296 58.7479 51.6296 59.2593V64.8148ZM75.7037 56.722C75.7042 57.1836 75.3646 57.5751 74.9075 57.6398L74.6507 57.6751L53.4815 60.5943V59.2593C53.4815 57.7252 52.2377 56.4815 50.7037 56.4815H48.8519C47.3178 56.4815 46.0741 57.7252 46.0741 59.2593V60.5943L24.6489 57.6398C24.1918 57.5756 23.8514 57.1841 23.8519 56.722V36.1111C23.8519 35.5998 24.2664 35.1852 24.7778 35.1852H74.7778C75.2891 35.1852 75.7037 35.5998 75.7037 36.1111V56.722Z" fill="white"/>
<defs>
<linearGradient id="paint0_linear" x1="97.2321" y1="7.51025e-06" x2="-21.0792" y2="47.531" gradientUnits="userSpaceOnUse">
<stop stop-color="#917AB8"/>
<stop offset="1" stop-color="#7760A2"/>
</linearGradient>
</defs>
</svg>
