<svg width="17" height="15" viewBox="0 0 17 15" fill="none" xmlns="http://www.w3.org/2000/svg">
<path d="M16.7375 0.68869C16.5299 0.434738 16.2188 0.294922 15.8617 0.294922C15.6675 0.294922 15.4618 0.335777 15.2504 0.41658L0.860195 5.90975C0.0965233 6.20119 -0.0063286 6.63853 0.000286081 6.87329C0.00690076 7.10805 0.134396 7.53891 0.913372 7.78677C0.918041 7.78819 0.92271 7.78962 0.92738 7.79092L3.91229 8.64512L5.52653 13.2611C5.74663 13.8904 6.24066 14.2813 6.81601 14.2813C7.17878 14.2813 7.53558 14.1293 7.8479 13.8419L9.69417 12.142L12.3721 14.2982C12.3723 14.2985 12.3727 14.2986 12.373 14.2989L12.3984 14.3194C12.4007 14.3212 12.4032 14.3231 12.4055 14.3249C12.7032 14.5558 13.0281 14.6777 13.3455 14.6778H13.3456C13.9657 14.6778 14.4595 14.2188 14.6033 13.5086L16.9611 1.86623C17.0558 1.39893 16.9764 0.980774 16.7375 0.68869ZM4.91085 8.48286L10.6696 5.54089L7.08384 9.35107C7.02508 9.41346 6.98345 9.48985 6.96296 9.57299L6.27153 12.3737L4.91085 8.48286ZM7.17307 13.1091C7.14921 13.131 7.12521 13.1506 7.10122 13.1687L7.74271 10.5705L8.90962 11.5102L7.17307 13.1091ZM15.9849 1.66844L13.6271 13.3109C13.6044 13.4223 13.5319 13.6816 13.3455 13.6816C13.2534 13.6816 13.1377 13.6314 13.0193 13.5402L9.98483 11.097C9.98444 11.0966 9.98392 11.0962 9.9834 11.0959L8.17785 9.64199L13.3634 4.13196C13.5294 3.95557 13.5444 3.6854 13.399 3.49163C13.2535 3.29786 12.9898 3.2369 12.7742 3.34715L4.24536 7.70428L1.21985 6.83866L15.6056 1.34718C15.7272 1.30074 15.812 1.29102 15.8617 1.29102C15.8921 1.29102 15.9463 1.29465 15.9665 1.31942C15.9929 1.35172 16.0266 1.46183 15.9849 1.66844Z" fill="white" fill-opacity="0.8"/>
</svg>
