<svg width="90" height="90" viewBox="0 0 90 90" fill="none" xmlns="http://www.w3.org/2000/svg">
<circle cx="45" cy="45" r="45" fill="url(#paint0_linear)"/>
<g opacity="0.8">
<mask id="mask0" mask-type="alpha" maskUnits="userSpaceOnUse" x="20" y="20" width="50" height="50">
<circle cx="45" cy="45" r="25" fill="#C4C4C4"/>
</mask>
<g mask="url(#mask0)">
<path d="M44.939 33.2513C45.4757 33.2513 45.9105 32.8165 45.9105 32.2798V30.7969C45.9105 30.2603 45.4757 29.8254 44.939 29.8254C44.4023 29.8254 43.9675 30.2603 43.9675 30.7969V32.2798C43.9675 32.8165 44.4023 33.2513 44.939 33.2513Z" fill="white"/>
<path d="M55.6205 34.2498C55.2409 33.8705 54.6259 33.8705 54.2465 34.2498L53.1979 35.2984C52.8185 35.6779 52.8185 36.2929 53.1979 36.6723C53.5776 37.0517 54.1925 37.0516 54.5719 36.6723L55.6205 35.6238C55.9998 35.2443 55.9998 34.6293 55.6205 34.2498Z" fill="white"/>
<path d="M57.5905 43.96C57.0539 43.96 56.619 44.3948 56.619 44.9315C56.619 45.4681 57.0539 45.903 57.5905 45.903H59.0733C59.61 45.903 60.0448 45.4681 60.0448 44.9315C60.0448 44.3948 59.61 43.96 59.0733 43.96H57.5905Z" fill="white"/>
<path d="M54.5719 53.1905C54.1924 52.8112 53.5773 52.8112 53.1979 53.1905C52.8185 53.57 52.8185 54.185 53.1979 54.5644L54.2465 55.613C54.6262 55.9924 55.2411 55.9923 55.6205 55.613C55.9999 55.2335 55.9999 54.6184 55.6205 54.239L54.5719 53.1905Z" fill="white"/>
<path d="M43.9675 57.583V59.0657C43.9675 59.6024 44.4023 60.0372 44.939 60.0372C45.4757 60.0372 45.9105 59.6024 45.9105 59.0657V57.583C45.9105 57.0463 45.4757 56.6115 44.939 56.6115C44.4023 56.6115 43.9675 57.0464 43.9675 57.583Z" fill="white"/>
<path d="M35.306 53.1905L34.2574 54.239C33.878 54.6186 33.878 55.2336 34.2574 55.613C34.6369 55.9924 35.252 55.9923 35.6312 55.613L36.6798 54.5644C37.0592 54.1849 37.0592 53.5699 36.6798 53.1905C36.3005 52.8112 35.6854 52.8112 35.306 53.1905Z" fill="white"/>
<path d="M30.8045 43.96C30.268 43.96 29.833 44.3948 29.833 44.9315C29.833 45.4681 30.268 45.903 30.8045 45.903H32.2874C32.824 45.903 33.2589 45.4681 33.2589 44.9315C33.2589 44.3948 32.824 43.96 32.2874 43.96H30.8045Z" fill="white"/>
<path d="M36.6799 35.2984L35.6313 34.2498C35.2519 33.8705 34.6368 33.8705 34.2575 34.2498C33.8781 34.6293 33.8781 35.2443 34.2575 35.6238L35.3061 36.6723C35.6856 37.0517 36.3006 37.0516 36.6799 36.6723C37.0593 36.2929 37.0593 35.6779 36.6799 35.2984Z" fill="white"/>
<path d="M50.1631 44.9315C50.1631 44.3948 49.7283 43.96 49.1916 43.96H45.9105V36.747C45.9105 36.2104 45.4757 35.7755 44.939 35.7755C44.4023 35.7755 43.9675 36.2104 43.9675 36.747V44.9315C43.9675 45.4681 44.4023 45.903 44.939 45.903H49.1916C49.7281 45.903 50.1631 45.4681 50.1631 44.9315Z" fill="white"/>
<path d="M63.3602 44.7711C63.8959 44.7386 64.3036 44.2781 64.2711 43.7426C63.6531 33.5479 55.1614 25.562 44.9389 25.562C34.2585 25.562 25.5694 34.2511 25.5694 44.9316C25.5694 55.6119 34.2585 64.301 44.9389 64.301C54.5074 64.301 62.672 57.2904 64.0924 47.8299C64.172 47.2993 63.8065 46.8046 63.2758 46.725C62.7465 46.6456 62.2505 47.0107 62.1708 47.5415C60.8949 56.0408 53.5561 62.3581 44.9389 62.3581C35.3299 62.3581 27.5124 54.5406 27.5124 44.9317C27.5124 35.3228 35.3299 27.5051 44.9389 27.5051C54.1359 27.5051 61.7756 34.6892 62.3316 43.8605C62.364 44.3957 62.8241 44.8022 63.3602 44.7711Z" fill="white"/>
<path d="M44.9389 20C41.5216 20 38.1736 20.7089 35.092 22.0347H17.9509C17.4144 22.0347 16.9794 22.4696 16.9794 23.0062C16.9794 23.5429 17.4144 23.9777 17.9509 23.9777H31.437C29.6136 25.1513 27.935 26.5668 26.4549 28.201C26.0948 28.5986 26.1251 29.213 26.5228 29.5732C26.9206 29.9334 27.5347 29.903 27.8951 29.5053C32.2477 24.6994 38.46 21.943 44.9389 21.943C57.6148 21.943 67.9275 32.2556 67.9275 44.9315C67.9275 57.6073 57.6149 67.9199 44.9389 67.9199C32.263 67.9199 21.9504 57.6074 21.9504 44.9315C21.9504 40.4926 23.2184 36.1843 25.6171 32.4721C25.9083 32.0215 25.779 31.4202 25.3284 31.129C24.8777 30.838 24.2764 30.967 23.9851 31.4177C21.3828 35.4447 20.0074 40.1176 20.0074 44.9315C20.0074 53.7095 24.5677 61.4416 31.4433 65.8852H17.951C17.4145 65.8852 16.9795 66.3201 16.9795 66.8567C16.9795 67.3934 17.4145 67.8282 17.951 67.8282H35.0786C38.1045 69.1364 41.4383 69.863 44.939 69.863C58.6861 69.863 69.8705 58.6788 69.8705 44.9315C69.8705 31.1842 58.6861 20 44.9389 20Z" fill="white"/>
</g>
</g>
<defs>
<linearGradient id="paint0_linear" x1="45" y1="-20.7" x2="45" y2="90" gradientUnits="userSpaceOnUse">
<stop stop-color="#FE8A6B"/>
<stop offset="0.5" stop-color="#FC7B58"/>
<stop offset="1" stop-color="#EC5D36"/>
</linearGradient>
</defs>
</svg>
