<svg width="31" height="30" viewBox="0 0 31 30" fill="none" xmlns="http://www.w3.org/2000/svg">
<g clip-path="url(#clip0)">
<path d="M29.7349 21.7089C29.6543 21.5739 29.1555 20.4901 26.7554 18.2624C24.2427 15.9297 24.5802 16.3085 27.6067 12.2751C29.4499 9.81864 30.1868 8.31853 29.9562 7.67723C29.7368 7.06593 28.3811 7.2272 28.3811 7.2272L23.8733 7.25345C23.8733 7.25345 23.5395 7.20844 23.2901 7.35658C23.0482 7.50284 22.8926 7.84037 22.8926 7.84037C22.8926 7.84037 22.1781 9.74176 21.2256 11.3581C19.2173 14.769 18.4129 14.949 18.0847 14.7371C17.3215 14.244 17.5128 12.7532 17.5128 11.6957C17.5128 8.38978 18.0135 7.01155 16.5359 6.65528C16.0446 6.53714 15.6845 6.45839 14.4301 6.44526C12.8212 6.42839 11.458 6.45089 10.6873 6.82779C10.1735 7.07906 9.77786 7.63973 10.0198 7.6716C10.3179 7.71098 10.9929 7.85349 11.3511 8.34103C11.8143 8.9692 11.7974 10.3831 11.7974 10.3831C11.7974 10.3831 12.0637 14.274 11.1767 14.7578C10.5673 15.0897 9.73285 14.4127 7.9421 11.3169C7.02516 9.73238 6.33136 7.97913 6.33136 7.97913C6.33136 7.97913 6.19822 7.65285 5.96008 7.47846C5.67131 7.26657 5.26628 7.19907 5.26628 7.19907L0.979715 7.22532C0.979715 7.22532 0.336543 7.24407 0.100276 7.52347C-0.10974 7.77286 0.0833994 8.28665 0.0833994 8.28665C0.0833994 8.28665 3.43989 16.1379 7.23892 20.0963C10.7248 23.7247 14.6813 23.4865 14.6813 23.4865H16.474C16.474 23.4865 17.0159 23.4265 17.2915 23.1284C17.5466 22.8546 17.5372 22.3408 17.5372 22.3408C17.5372 22.3408 17.5015 19.935 18.6191 19.5806C19.7198 19.2318 21.1337 21.9058 22.6319 22.9352C23.7645 23.7134 24.6252 23.5428 24.6252 23.5428L28.6324 23.4865C28.6324 23.4865 30.7288 23.3571 29.7349 21.7089Z" fill="white" fill-opacity="0.6"/>
</g>
<defs>
<clipPath id="clip0">
<rect width="30" height="30" fill="white" transform="translate(0.00238037)"/>
</clipPath>
</defs>
</svg>
