<svg width="27" height="27" viewBox="0 0 27 27" fill="none" xmlns="http://www.w3.org/2000/svg">
<g clip-path="url(#clip0)">
<path d="M26.7593 19.5382C26.6867 19.4166 26.2378 18.4412 24.0777 16.4363C21.8163 14.3369 22.12 14.6778 24.8439 11.0477C26.5028 8.83692 27.166 7.48682 26.9585 6.90965C26.761 6.35949 25.5409 6.50462 25.5409 6.50462L21.4838 6.52825C21.4838 6.52825 21.1834 6.48775 20.959 6.62107C20.7412 6.7527 20.6012 7.05647 20.6012 7.05647C20.6012 7.05647 19.9582 8.76773 19.1009 10.2225C17.2934 13.2923 16.5694 13.4543 16.2741 13.2636C15.5872 12.8197 15.7594 11.4781 15.7594 10.5262C15.7594 7.55095 16.21 6.31054 14.8801 5.9899C14.438 5.88358 14.1139 5.81269 12.9849 5.80088C11.5369 5.78569 10.31 5.80594 9.61643 6.14516C9.15402 6.3713 8.79794 6.8759 9.01564 6.90459C9.28397 6.94003 9.89152 7.06829 10.2139 7.50707C10.6307 8.07243 10.6155 9.34489 10.6155 9.34489C10.6155 9.34489 10.8551 12.8467 10.0569 13.2821C9.50843 13.5808 8.75743 12.9716 7.14575 10.1853C6.3205 8.75929 5.69608 7.18136 5.69608 7.18136C5.69608 7.18136 5.57626 6.88771 5.36193 6.73076C5.10204 6.54006 4.73751 6.47931 4.73751 6.47931L0.879606 6.50293C0.879606 6.50293 0.300751 6.51981 0.0881103 6.77127C-0.100904 6.99572 0.0729217 7.45813 0.0729217 7.45813C0.0729217 7.45813 3.09377 14.5242 6.51289 18.0868C9.65019 21.3523 13.2111 21.138 13.2111 21.138H14.8244C14.8244 21.138 15.3122 21.084 15.5602 20.8157C15.7898 20.5693 15.7813 20.1069 15.7813 20.1069C15.7813 20.1069 15.7493 17.9417 16.7551 17.6227C17.7457 17.3088 19.0182 19.7154 20.3666 20.6419C21.3859 21.3422 22.1605 21.1887 22.1605 21.1887L25.767 21.138C25.767 21.138 27.6538 21.0216 26.7593 19.5382Z" fill="#F26944" fill-opacity="0.6"/>
</g>
<defs>
<clipPath id="clip0">
<rect width="27" height="27" fill="white"/>
</clipPath>
</defs>
</svg>
