<svg width="19" height="21" viewBox="0 0 19 21" xmlns="http://www.w3.org/2000/svg">
<path d="M5.34379 14.4773C5.19179 14.4773 5.03979 14.4229 4.92421 14.3132C4.69225 14.0945 4.69225 13.7401 4.92421 13.5214L7.07675 11.4925L4.92342 9.46279C4.69146 9.24415 4.69146 8.8897 4.92342 8.67106C5.15538 8.45242 5.53142 8.45242 5.76338 8.67106L8.33629 11.0962C8.56825 11.3149 8.56825 11.6693 8.33629 11.888L5.76338 14.3132C5.64779 14.4229 5.49579 14.4773 5.34379 14.4773V14.4773Z" fill="white"/>
<path d="M13.6563 14.4772H10.0938C9.766 14.4772 9.5 14.2265 9.5 13.9176C9.5 13.6086 9.766 13.3579 10.0938 13.3579H13.6563C13.984 13.3579 14.25 13.6086 14.25 13.9176C14.25 14.2265 13.984 14.4772 13.6563 14.4772Z" fill="white"/>
<path d="M16.8229 18.2084H2.17708C0.976125 18.2084 0 17.2883 0 16.1563V3.84383C0 2.71183 0.976125 1.79175 2.17708 1.79175H16.8229C18.0239 1.79175 19 2.71183 19 3.84383V16.1563C19 17.2883 18.0239 18.2084 16.8229 18.2084ZM2.17708 2.91107C1.63163 2.91107 1.1875 3.32969 1.1875 3.84383V16.1563C1.1875 16.6705 1.63163 17.0891 2.17708 17.0891H16.8229C17.3684 17.0891 17.8125 16.6705 17.8125 16.1563V3.84383C17.8125 3.32969 17.3684 2.91107 16.8229 2.91107H2.17708Z" fill="white"/>
<path d="M18.4063 5.52264H0.59375C0.266 5.52264 0 5.27191 0 4.96298C0 4.65405 0.266 4.40332 0.59375 4.40332H18.4063C18.734 4.40332 19 4.65405 19 4.96298C19 5.27191 18.734 5.52264 18.4063 5.52264Z" fill="white"/>
</svg>
