<svg width="17" height="17" viewBox="0 0 17 17" fill="none" xmlns="http://www.w3.org/2000/svg">
<path fill-rule="evenodd" clip-rule="evenodd" d="M14.1376 2.83955C12.6465 1.34677 10.6636 0.524313 8.55107 0.523438C4.19802 0.523438 0.655275 4.06609 0.653524 8.4203C0.652941 9.81221 1.01655 11.1709 1.70769 12.3686L0.58728 16.4609L4.77389 15.3627C5.92747 15.992 7.22619 16.3236 8.54786 16.324H8.55117C12.9037 16.324 16.4469 12.781 16.4485 8.42662C16.4494 6.31634 15.6287 4.33223 14.1376 2.83955ZM8.55107 14.9902H8.54834C7.37054 14.9898 6.2154 14.6732 5.20744 14.0753L4.96785 13.933L2.48346 14.5847L3.14658 12.1625L2.99045 11.9141C2.33336 10.869 1.98638 9.66104 1.98697 8.42079C1.98833 4.80168 4.93303 1.85727 8.55369 1.85727C10.307 1.85785 11.9551 2.5415 13.1944 3.78224C14.4337 5.02298 15.1158 6.67218 15.1152 8.42614C15.1136 12.0455 12.1691 14.9902 8.55107 14.9902V14.9902ZM12.1516 10.0741C11.9543 9.97524 10.9841 9.49801 10.8032 9.43206C10.6224 9.3662 10.4907 9.33342 10.3593 9.53089C10.2277 9.72835 9.84959 10.1729 9.73442 10.3045C9.61924 10.4362 9.50426 10.4528 9.30689 10.3539C9.10952 10.2552 8.47373 10.0467 7.71995 9.37447C7.13339 8.85123 6.73738 8.20503 6.62221 8.00756C6.50723 7.8099 6.62123 7.71341 6.70878 7.60485C6.9224 7.33958 7.1363 7.06147 7.20206 6.92986C7.26792 6.79815 7.23494 6.68288 7.18552 6.58414C7.1363 6.48541 6.74166 5.51412 6.57727 5.11889C6.41696 4.73427 6.25441 4.78621 6.13321 4.78018C6.01823 4.77444 5.88661 4.77328 5.755 4.77328C5.62349 4.77328 5.40968 4.82259 5.22875 5.02026C5.04791 5.21782 4.53819 5.69515 4.53819 6.66644C4.53819 7.63773 5.24528 8.57604 5.34392 8.70775C5.44256 8.83946 6.73543 10.8326 8.71488 11.6873C9.18569 11.8908 9.55319 12.0121 9.83986 12.103C10.3126 12.2532 10.7427 12.232 11.0827 12.1812C11.4619 12.1245 12.2501 11.7038 12.4147 11.2429C12.5791 10.7819 12.5791 10.3869 12.5297 10.3045C12.4805 10.2222 12.3489 10.1729 12.1516 10.0741V10.0741Z" fill="white" fill-opacity="0.8"/>
</svg>
